# Blender 5.1.2
# www.blender.org
mtllib Suzanne.mtl
o Suzanne
v 0.437500 0.164063 0.765625
v -0.437500 0.164063 0.765625
v 0.500000 0.093750 0.687500
v -0.500000 0.093750 0.687500
v 0.546875 0.054688 0.578125
v -0.546875 0.054688 0.578125
v 0.351563 -0.023438 0.617188
v -0.351563 -0.023438 0.617188
v 0.351563 0.031250 0.718750
v -0.351563 0.031250 0.718750
v 0.351563 0.132813 0.781250
v -0.351563 0.132813 0.781250
v 0.273438 0.164063 0.796875
v -0.273438 0.164063 0.796875
v 0.203125 0.093750 0.742188
v -0.203125 0.093750 0.742188
v 0.156250 0.054688 0.648438
v -0.156250 0.054688 0.648438
v 0.078125 0.242188 0.656250
v -0.078125 0.242188 0.656250
v 0.140625 0.242188 0.742188
v -0.140625 0.242188 0.742188
v 0.242188 0.242188 0.796875
v -0.242188 0.242188 0.796875
v 0.273438 0.328125 0.796875
v -0.273438 0.328125 0.796875
v 0.203125 0.390625 0.742188
v -0.203125 0.390625 0.742188
v 0.156250 0.437500 0.648438
v -0.156250 0.437500 0.648438
v 0.351563 0.515625 0.617188
v -0.351563 0.515625 0.617188
v 0.351563 0.453125 0.718750
v -0.351563 0.453125 0.718750
v 0.351563 0.359375 0.781250
v -0.351563 0.359375 0.781250
v 0.437500 0.328125 0.765625
v -0.437500 0.328125 0.765625
v 0.500000 0.390625 0.687500
v -0.500000 0.390625 0.687500
v 0.546875 0.437500 0.578125
v -0.546875 0.437500 0.578125
v 0.625000 0.242188 0.562500
v -0.625000 0.242188 0.562500
v 0.562500 0.242188 0.671875
v -0.562500 0.242188 0.671875
v 0.468750 0.242188 0.757813
v -0.468750 0.242188 0.757813
v 0.476563 0.242188 0.773438
v -0.476563 0.242188 0.773438
v 0.445313 0.335938 0.781250
v -0.445313 0.335938 0.781250
v 0.351563 0.375000 0.804688
v -0.351563 0.375000 0.804688
v 0.265625 0.335938 0.820313
v -0.265625 0.335938 0.820313
v 0.226563 0.242188 0.820313
v -0.226563 0.242188 0.820313
v 0.265625 0.156250 0.820313
v -0.265625 0.156250 0.820313
v 0.351563 0.242188 0.828125
v -0.351563 0.242188 0.828125
v 0.351563 0.117188 0.804688
v -0.351563 0.117188 0.804688
v 0.445313 0.156250 0.781250
v -0.445313 0.156250 0.781250
v 0.000000 0.429688 0.742188
v 0.000000 0.351563 0.820313
v 0.000000 -0.679688 0.734375
v 0.000000 -0.320313 0.781250
v 0.000000 -0.187500 0.796875
v 0.000000 -0.773438 0.718750
v 0.000000 0.406250 0.601563
v 0.000000 0.570313 0.570313
v 0.000000 0.898438 -0.546875
v 0.000000 0.562500 -0.851563
v 0.000000 0.070313 -0.828125
v 0.000000 -0.382813 -0.351563
v 0.203125 -0.187500 0.562500
v -0.203125 -0.187500 0.562500
v 0.312500 -0.437500 0.570313
v -0.312500 -0.437500 0.570313
v 0.351563 -0.695313 0.570313
v -0.351563 -0.695313 0.570313
v 0.367188 -0.890625 0.531250
v -0.367188 -0.890625 0.531250
v 0.328125 -0.945313 0.523438
v -0.328125 -0.945313 0.523438
v 0.179688 -0.968750 0.554688
v -0.179688 -0.968750 0.554688
v 0.000000 -0.984375 0.578125
v 0.437500 -0.140625 0.531250
v -0.437500 -0.140625 0.531250
v 0.632813 -0.039063 0.539063
v -0.632813 -0.039063 0.539063
v 0.828125 0.148438 0.445313
v -0.828125 0.148438 0.445313
v 0.859375 0.429688 0.593750
v -0.859375 0.429688 0.593750
v 0.710938 0.484375 0.625000
v -0.710938 0.484375 0.625000
v 0.492188 0.601563 0.687500
v -0.492188 0.601563 0.687500
v 0.320313 0.757813 0.734375
v -0.320313 0.757813 0.734375
v 0.156250 0.718750 0.757813
v -0.156250 0.718750 0.757813
v 0.062500 0.492188 0.750000
v -0.062500 0.492188 0.750000
v 0.164063 0.414063 0.773438
v -0.164063 0.414063 0.773438
v 0.125000 0.304688 0.765625
v -0.125000 0.304688 0.765625
v 0.203125 0.093750 0.742188
v -0.203125 0.093750 0.742188
v 0.375000 0.015625 0.703125
v -0.375000 0.015625 0.703125
v 0.492188 0.062500 0.671875
v -0.492188 0.062500 0.671875
v 0.625000 0.187500 0.648438
v -0.625000 0.187500 0.648438
v 0.640625 0.296875 0.648438
v -0.640625 0.296875 0.648438
v 0.601563 0.375000 0.664063
v -0.601563 0.375000 0.664063
v 0.429688 0.437500 0.718750
v -0.429688 0.437500 0.718750
v 0.250000 0.468750 0.757813
v -0.250000 0.468750 0.757813
v 0.000000 -0.765625 0.734375
v 0.109375 -0.718750 0.734375
v -0.109375 -0.718750 0.734375
v 0.117188 -0.835938 0.710938
v -0.117188 -0.835938 0.710938
v 0.062500 -0.882813 0.695313
v -0.062500 -0.882813 0.695313
v 0.000000 -0.890625 0.687500
v 0.000000 -0.195313 0.750000
v 0.000000 -0.140625 0.742188
v 0.101563 -0.148438 0.742188
v -0.101563 -0.148438 0.742188
v 0.125000 -0.226563 0.750000
v -0.125000 -0.226563 0.750000
v 0.085938 -0.289063 0.742188
v -0.085938 -0.289063 0.742188
v 0.398438 -0.046875 0.671875
v -0.398438 -0.046875 0.671875
v 0.617188 0.054688 0.625000
v -0.617188 0.054688 0.625000
v 0.726563 0.203125 0.601563
v -0.726563 0.203125 0.601563
v 0.742188 0.375000 0.656250
v -0.742188 0.375000 0.656250
v 0.687500 0.414063 0.726563
v -0.687500 0.414063 0.726563
v 0.437500 0.546875 0.796875
v -0.437500 0.546875 0.796875
v 0.312500 0.640625 0.835938
v -0.312500 0.640625 0.835938
v 0.203125 0.617188 0.851563
v -0.203125 0.617188 0.851563
v 0.101563 0.429688 0.843750
v -0.101563 0.429688 0.843750
v 0.125000 -0.101563 0.812500
v -0.125000 -0.101563 0.812500
v 0.210938 -0.445313 0.710938
v -0.210938 -0.445313 0.710938
v 0.250000 -0.703125 0.687500
v -0.250000 -0.703125 0.687500
v 0.265625 -0.820313 0.664063
v -0.265625 -0.820313 0.664063
v 0.234375 -0.914063 0.632813
v -0.234375 -0.914063 0.632813
v 0.164063 -0.929688 0.632813
v -0.164063 -0.929688 0.632813
v 0.000000 -0.945313 0.640625
v 0.000000 0.046875 0.726563
v 0.000000 0.210938 0.765625
v 0.328125 0.476563 0.742188
v -0.328125 0.476563 0.742188
v 0.164063 0.140625 0.750000
v -0.164063 0.140625 0.750000
v 0.132813 0.210938 0.757813
v -0.132813 0.210938 0.757813
v 0.117188 -0.687500 0.734375
v -0.117188 -0.687500 0.734375
v 0.078125 -0.445313 0.750000
v -0.078125 -0.445313 0.750000
v 0.000000 -0.445313 0.750000
v 0.000000 -0.328125 0.742188
v 0.093750 -0.273438 0.781250
v -0.093750 -0.273438 0.781250
v 0.132813 -0.226563 0.796875
v -0.132813 -0.226563 0.796875
v 0.109375 -0.132813 0.781250
v -0.109375 -0.132813 0.781250
v 0.039063 -0.125000 0.781250
v -0.039063 -0.125000 0.781250
v 0.000000 -0.203125 0.828125
v 0.046875 -0.148438 0.812500
v -0.046875 -0.148438 0.812500
v 0.093750 -0.156250 0.812500
v -0.093750 -0.156250 0.812500
v 0.109375 -0.226563 0.828125
v -0.109375 -0.226563 0.828125
v 0.078125 -0.250000 0.804688
v -0.078125 -0.250000 0.804688
v 0.000000 -0.289063 0.804688
v 0.257813 -0.312500 0.554688
v -0.257813 -0.312500 0.554688
v 0.164063 -0.242188 0.710938
v -0.164063 -0.242188 0.710938
v 0.179688 -0.312500 0.710938
v -0.179688 -0.312500 0.710938
v 0.234375 -0.250000 0.554688
v -0.234375 -0.250000 0.554688
v 0.000000 -0.875000 0.687500
v 0.046875 -0.867188 0.687500
v -0.046875 -0.867188 0.687500
v 0.093750 -0.820313 0.710938
v -0.093750 -0.820313 0.710938
v 0.093750 -0.742188 0.726563
v -0.093750 -0.742188 0.726563
v 0.000000 -0.781250 0.656250
v 0.093750 -0.750000 0.664063
v -0.093750 -0.750000 0.664063
v 0.093750 -0.812500 0.640625
v -0.093750 -0.812500 0.640625
v 0.046875 -0.851563 0.632813
v -0.046875 -0.851563 0.632813
v 0.000000 -0.859375 0.632813
v 0.171875 0.218750 0.781250
v -0.171875 0.218750 0.781250
v 0.187500 0.156250 0.773438
v -0.187500 0.156250 0.773438
v 0.335938 0.429688 0.757813
v -0.335938 0.429688 0.757813
v 0.273438 0.421875 0.773438
v -0.273438 0.421875 0.773438
v 0.421875 0.398438 0.773438
v -0.421875 0.398438 0.773438
v 0.562500 0.351563 0.695313
v -0.562500 0.351563 0.695313
v 0.585938 0.289063 0.687500
v -0.585938 0.289063 0.687500
v 0.578125 0.195313 0.679688
v -0.578125 0.195313 0.679688
v 0.476563 0.101563 0.718750
v -0.476563 0.101563 0.718750
v 0.375000 0.062500 0.742188
v -0.375000 0.062500 0.742188
v 0.226563 0.109375 0.781250
v -0.226563 0.109375 0.781250
v 0.179688 0.296875 0.781250
v -0.179688 0.296875 0.781250
v 0.210938 0.375000 0.781250
v -0.210938 0.375000 0.781250
v 0.234375 0.359375 0.757813
v -0.234375 0.359375 0.757813
v 0.195313 0.296875 0.757813
v -0.195313 0.296875 0.757813
v 0.242188 0.125000 0.757813
v -0.242188 0.125000 0.757813
v 0.375000 0.085938 0.726563
v -0.375000 0.085938 0.726563
v 0.460938 0.117188 0.703125
v -0.460938 0.117188 0.703125
v 0.546875 0.210938 0.671875
v -0.546875 0.210938 0.671875
v 0.554688 0.281250 0.671875
v -0.554688 0.281250 0.671875
v 0.531250 0.335938 0.679688
v -0.531250 0.335938 0.679688
v 0.414063 0.390625 0.750000
v -0.414063 0.390625 0.750000
v 0.281250 0.398438 0.765625
v -0.281250 0.398438 0.765625
v 0.335938 0.406250 0.750000
v -0.335938 0.406250 0.750000
v 0.203125 0.171875 0.750000
v -0.203125 0.171875 0.750000
v 0.195313 0.226563 0.750000
v -0.195313 0.226563 0.750000
v 0.109375 0.460938 0.609375
v -0.109375 0.460938 0.609375
v 0.195313 0.664063 0.617188
v -0.195313 0.664063 0.617188
v 0.335938 0.687500 0.593750
v -0.335938 0.687500 0.593750
v 0.484375 0.554688 0.554688
v -0.484375 0.554688 0.554688
v 0.679688 0.453125 0.492188
v -0.679688 0.453125 0.492188
v 0.796875 0.406250 0.460938
v -0.796875 0.406250 0.460938
v 0.773438 0.164063 0.375000
v -0.773438 0.164063 0.375000
v 0.601563 0.000000 0.414063
v -0.601563 0.000000 0.414063
v 0.437500 -0.093750 0.468750
v -0.437500 -0.093750 0.468750
v 0.000000 0.898438 0.289063
v 0.000000 0.984375 -0.078125
v 0.000000 -0.195313 -0.671875
v 0.000000 -0.460938 0.187500
v 0.000000 -0.976563 0.460938
v 0.000000 -0.804688 0.343750
v 0.000000 -0.570313 0.320313
v 0.000000 -0.484375 0.281250
v 0.851563 0.234375 0.054688
v -0.851563 0.234375 0.054688
v 0.859375 0.320313 -0.046875
v -0.859375 0.320313 -0.046875
v 0.773438 0.265625 -0.437500
v -0.773438 0.265625 -0.437500
v 0.460938 0.437500 -0.703125
v -0.460938 0.437500 -0.703125
v 0.734375 -0.046875 0.070313
v -0.734375 -0.046875 0.070313
v 0.593750 -0.125000 -0.164063
v -0.593750 -0.125000 -0.164063
v 0.640625 -0.007813 -0.429688
v -0.640625 -0.007813 -0.429688
v 0.335938 0.054688 -0.664063
v -0.335938 0.054688 -0.664063
v 0.234375 -0.351563 0.406250
v -0.234375 -0.351563 0.406250
v 0.179688 -0.414063 0.257813
v -0.179688 -0.414063 0.257813
v 0.289063 -0.710938 0.382813
v -0.289063 -0.710938 0.382813
v 0.250000 -0.500000 0.390625
v -0.250000 -0.500000 0.390625
v 0.328125 -0.914063 0.398438
v -0.328125 -0.914063 0.398438
v 0.140625 -0.757813 0.367188
v -0.140625 -0.757813 0.367188
v 0.125000 -0.539063 0.359375
v -0.125000 -0.539063 0.359375
v 0.164063 -0.945313 0.437500
v -0.164063 -0.945313 0.437500
v 0.218750 -0.281250 0.429688
v -0.218750 -0.281250 0.429688
v 0.210938 -0.226563 0.468750
v -0.210938 -0.226563 0.468750
v 0.203125 -0.171875 0.500000
v -0.203125 -0.171875 0.500000
v 0.210938 -0.390625 0.164063
v -0.210938 -0.390625 0.164063
v 0.296875 -0.312500 -0.265625
v -0.296875 -0.312500 -0.265625
v 0.343750 -0.148438 -0.539063
v -0.343750 -0.148438 -0.539063
v 0.453125 0.867188 -0.382813
v -0.453125 0.867188 -0.382813
v 0.453125 0.929688 -0.070313
v -0.453125 0.929688 -0.070313
v 0.453125 0.851563 0.234375
v -0.453125 0.851563 0.234375
v 0.460938 0.523438 0.429688
v -0.460938 0.523438 0.429688
v 0.726563 0.406250 0.335938
v -0.726563 0.406250 0.335938
v 0.632813 0.453125 0.281250
v -0.632813 0.453125 0.281250
v 0.640625 0.703125 0.054688
v -0.640625 0.703125 0.054688
v 0.796875 0.562500 0.125000
v -0.796875 0.562500 0.125000
v 0.796875 0.617188 -0.117188
v -0.796875 0.617188 -0.117188
v 0.640625 0.750000 -0.195313
v -0.640625 0.750000 -0.195313
v 0.640625 0.679688 -0.445313
v -0.640625 0.679688 -0.445313
v 0.796875 0.539063 -0.359375
v -0.796875 0.539063 -0.359375
v 0.617188 0.328125 -0.585938
v -0.617188 0.328125 -0.585938
v 0.484375 0.023438 -0.546875
v -0.484375 0.023438 -0.546875
v 0.820313 0.328125 -0.203125
v -0.820313 0.328125 -0.203125
v 0.406250 -0.171875 0.148438
v -0.406250 -0.171875 0.148438
v 0.429688 -0.195313 -0.210938
v -0.429688 -0.195313 -0.210938
v 0.890625 0.406250 -0.234375
v -0.890625 0.406250 -0.234375
v 0.773438 -0.140625 -0.125000
v -0.773438 -0.140625 -0.125000
v 1.039063 -0.101563 -0.328125
v -1.039063 -0.101563 -0.328125
v 1.281250 0.054688 -0.429688
v -1.281250 0.054688 -0.429688
v 1.351563 0.320313 -0.421875
v -1.351563 0.320313 -0.421875
v 1.234375 0.507813 -0.421875
v -1.234375 0.507813 -0.421875
v 1.023438 0.476563 -0.312500
v -1.023438 0.476563 -0.312500
v 1.015625 0.414063 -0.289063
v -1.015625 0.414063 -0.289063
v 1.187500 0.437500 -0.390625
v -1.187500 0.437500 -0.390625
v 1.265625 0.289063 -0.406250
v -1.265625 0.289063 -0.406250
v 1.210938 0.078125 -0.406250
v -1.210938 0.078125 -0.406250
v 1.031250 -0.039063 -0.304688
v -1.031250 -0.039063 -0.304688
v 0.828125 -0.070313 -0.132813
v -0.828125 -0.070313 -0.132813
v 0.921875 0.359375 -0.218750
v -0.921875 0.359375 -0.218750
v 0.945313 0.304688 -0.289063
v -0.945313 0.304688 -0.289063
v 0.882813 -0.023438 -0.210938
v -0.882813 -0.023438 -0.210938
v 1.039063 -0.000000 -0.367188
v -1.039063 -0.000000 -0.367188
v 1.187500 0.093750 -0.445313
v -1.187500 0.093750 -0.445313
v 1.234375 0.250000 -0.445313
v -1.234375 0.250000 -0.445313
v 1.171875 0.359375 -0.437500
v -1.171875 0.359375 -0.437500
v 1.023438 0.343750 -0.359375
v -1.023438 0.343750 -0.359375
v 0.843750 0.289063 -0.210938
v -0.843750 0.289063 -0.210938
v 0.835938 0.171875 -0.273438
v -0.835938 0.171875 -0.273438
v 0.757813 0.093750 -0.273438
v -0.757813 0.093750 -0.273438
v 0.820313 0.085938 -0.273438
v -0.820313 0.085938 -0.273438
v 0.843750 0.015625 -0.273438
v -0.843750 0.015625 -0.273438
v 0.812500 -0.015625 -0.273438
v -0.812500 -0.015625 -0.273438
v 0.726563 -0.000000 -0.070313
v -0.726563 -0.000000 -0.070313
v 0.718750 -0.023438 -0.171875
v -0.718750 -0.023438 -0.171875
v 0.718750 0.039063 -0.187500
v -0.718750 0.039063 -0.187500
v 0.796875 0.203125 -0.210938
v -0.796875 0.203125 -0.210938
v 0.890625 0.242188 -0.265625
v -0.890625 0.242188 -0.265625
v 0.890625 0.234375 -0.320313
v -0.890625 0.234375 -0.320313
v 0.812500 -0.015625 -0.320313
v -0.812500 -0.015625 -0.320313
v 0.851563 0.015625 -0.320313
v -0.851563 0.015625 -0.320313
v 0.828125 0.078125 -0.320313
v -0.828125 0.078125 -0.320313
v 0.765625 0.093750 -0.320313
v -0.765625 0.093750 -0.320313
v 0.843750 0.171875 -0.320313
v -0.843750 0.171875 -0.320313
v 1.039063 0.328125 -0.414063
v -1.039063 0.328125 -0.414063
v 1.187500 0.343750 -0.484375
v -1.187500 0.343750 -0.484375
v 1.257813 0.242188 -0.492188
v -1.257813 0.242188 -0.492188
v 1.210938 0.085938 -0.484375
v -1.210938 0.085938 -0.484375
v 1.046875 -0.000000 -0.421875
v -1.046875 -0.000000 -0.421875
v 0.882813 -0.015625 -0.265625
v -0.882813 -0.015625 -0.265625
v 0.953125 0.289063 -0.343750
v -0.953125 0.289063 -0.343750
v 0.890625 0.109375 -0.328125
v -0.890625 0.109375 -0.328125
v 0.937500 0.062500 -0.335938
v -0.937500 0.062500 -0.335938
v 1.000000 0.125000 -0.367188
v -1.000000 0.125000 -0.367188
v 0.960938 0.171875 -0.351563
v -0.960938 0.171875 -0.351563
v 1.015625 0.234375 -0.375000
v -1.015625 0.234375 -0.375000
v 1.054688 0.187500 -0.382813
v -1.054688 0.187500 -0.382813
v 1.109375 0.210938 -0.390625
v -1.109375 0.210938 -0.390625
v 1.085938 0.273438 -0.390625
v -1.085938 0.273438 -0.390625
v 1.023438 0.437500 -0.484375
v -1.023438 0.437500 -0.484375
v 1.250000 0.468750 -0.546875
v -1.250000 0.468750 -0.546875
v 1.367188 0.296875 -0.500000
v -1.367188 0.296875 -0.500000
v 1.312500 0.054688 -0.531250
v -1.312500 0.054688 -0.531250
v 1.039063 -0.085938 -0.492188
v -1.039063 -0.085938 -0.492188
v 0.789063 -0.125000 -0.328125
v -0.789063 -0.125000 -0.328125
v 0.859375 0.382813 -0.382813
v -0.859375 0.382813 -0.382813
vn 0.1897 -0.0036 0.9818
vn 0.6468 -0.7582 0.0821
vn 0.9996 -0.0145 -0.0244
vn -0.9996 -0.0145 -0.0244
vn -0.6468 -0.7582 0.0821
vn -0.1897 -0.0036 0.9818
vn -0.0858 -0.9830 0.1624
vn 0.0858 -0.9830 0.1624
vn -0.7448 -0.6238 0.2369
vn 0.7448 -0.6238 0.2369
vn -0.8710 -0.0147 0.4911
vn 0.8710 -0.0163 0.4911
vn -0.7584 0.6061 0.2397
vn 0.7584 0.6061 0.2397
vn -0.0858 0.9825 0.1652
vn 0.0858 0.9825 0.1652
vn 0.6552 0.7506 0.0856
vn -0.6552 0.7506 0.0856
vn -0.3493 -0.7199 0.5997
vn -0.1737 0.2158 0.9609
vn -0.8099 0.3883 0.4397
vn 0.8098 0.3883 0.4398
vn 0.1737 0.2158 0.9609
vn 0.3493 -0.7200 0.5997
vn -0.0000 0.7942 0.6076
vn -0.5086 0.8581 -0.0699
vn -0.0000 0.4871 0.8734
vn 0.5086 0.8581 -0.0699
vn 0.9814 -0.1867 0.0440
vn 0.5698 -0.8217 0.0078
vn 0.5635 -0.8146 0.1377
vn -0.5635 -0.8146 0.1377
vn -0.5698 -0.8217 0.0078
vn -0.9814 -0.1867 0.0440
vn 0.4759 -0.8763 0.0753
vn 0.8505 -0.5255 -0.0207
vn 0.8770 -0.1638 0.4518
vn -0.8770 -0.1638 0.4518
vn -0.8505 -0.5255 -0.0207
vn -0.4759 -0.8763 0.0753
vn 0.4483 -0.3679 -0.8147
vn 0.5305 -0.5394 -0.6539
vn 0.5131 -0.6747 -0.5306
vn -0.5131 -0.6747 -0.5306
vn -0.5305 -0.5394 -0.6539
vn -0.4483 -0.3679 -0.8147
vn 0.8882 -0.4400 -0.1324
vn 0.5886 0.2269 0.7759
vn 0.9116 -0.1153 0.3946
vn -0.9116 -0.1153 0.3946
vn -0.5886 0.2269 0.7759
vn -0.8882 -0.4400 -0.1324
vn 0.4689 -0.3047 0.8290
vn 0.2516 0.2608 0.9320
vn -0.0031 -0.3309 0.9437
vn 0.0031 -0.3309 0.9437
vn -0.2516 0.2608 0.9320
vn -0.4689 -0.3047 0.8290
vn 0.4730 0.5790 -0.6640
vn 0.9925 0.0286 -0.1189
vn 0.4600 -0.3803 -0.8023
vn -0.4600 -0.3803 -0.8023
vn -0.9925 0.0286 -0.1189
vn -0.4730 0.5790 -0.6641
vn -0.0599 -0.8048 -0.5906
vn -0.3461 -0.6373 -0.6885
vn -0.3305 -0.9433 0.0313
vn -0.0737 -0.5950 0.8003
vn 0.3305 -0.9433 0.0313
vn 0.3461 -0.6373 -0.6885
vn 0.0599 -0.8047 -0.5906
vn 0.0737 -0.5950 0.8003
vn 0.5938 0.5953 -0.5414
vn -0.6261 -0.0027 -0.7798
vn 0.6261 -0.0027 -0.7798
vn -0.5938 0.5953 -0.5414
vn 0.1277 0.7038 0.6988
vn -0.7139 0.3822 0.5868
vn 0.7139 0.3822 0.5868
vn -0.1277 0.7038 0.6988
vn 0.3781 0.5601 -0.7372
vn 0.0368 -0.7085 -0.7048
vn -0.3781 0.5601 -0.7372
vn -0.0368 -0.7085 -0.7048
vn -0.0315 0.8387 0.5436
vn 0.0315 0.8387 0.5436
vn -0.3612 0.8487 0.3863
vn 0.3612 0.8487 0.3863
vn -0.7164 0.2045 0.6670
vn 0.7164 0.2045 0.6670
vn -0.6620 -0.4138 0.6249
vn 0.6620 -0.4138 0.6249
vn -0.5302 -0.6558 0.5374
vn 0.5302 -0.6558 0.5374
vn -0.4375 0.0012 0.8992
vn 0.5510 -0.1381 0.8230
vn 0.4375 0.0012 0.8992
vn -0.5510 -0.1381 0.8230
vn -0.3159 -0.1024 0.9433
vn 0.6086 0.2962 0.7362
vn -0.6086 0.2962 0.7362
vn 0.3159 -0.1024 0.9433
vn -0.4455 -0.0888 0.8909
vn -0.2576 0.6000 0.7573
vn 0.2577 0.6001 0.7573
vn 0.4455 -0.0888 0.8909
vn -0.3278 0.1699 0.9293
vn 0.0418 0.9272 0.3721
vn 0.3278 0.1699 0.9293
vn -0.0418 0.9272 0.3721
vn -0.2779 0.2602 0.9247
vn -0.7507 0.1116 0.6511
vn 0.7493 0.1105 0.6529
vn 0.2779 0.2602 0.9247
vn -0.4380 -0.2940 0.8496
vn -0.1838 0.0368 0.9823
vn -0.5542 0.3872 0.7368
vn -0.8143 0.2534 0.5221
vn 0.5542 0.3872 0.7368
vn 0.1838 0.0368 0.9823
vn 0.4379 -0.2940 0.8496
vn 0.8143 0.2534 0.5221
vn -0.3267 -0.0016 0.9451
vn -0.7043 -0.5269 0.4757
vn 0.7043 -0.5269 0.4757
vn 0.3267 -0.0016 0.9451
vn -0.3088 0.1346 0.9416
vn -0.6292 -0.3715 0.6827
vn 0.6292 -0.3715 0.6827
vn 0.3088 0.1346 0.9416
vn 0.1462 0.9487 0.2805
vn -0.1375 0.9058 0.4007
vn 0.1375 0.9058 0.4007
vn -0.1462 0.9487 0.2805
vn 0.7238 0.6900 -0.0052
vn -0.7238 0.6900 -0.0052
vn 0.9947 -0.0780 0.0670
vn -0.9947 -0.0780 0.0670
vn 0.2009 -0.7581 0.6204
vn -0.2009 -0.7581 0.6204
vn -0.5413 -0.6727 0.5045
vn 0.5413 -0.6727 0.5045
vn -0.6900 -0.5532 0.4667
vn 0.6901 -0.5532 0.4666
vn -0.4641 0.6867 0.5596
vn 0.4641 0.6867 0.5596
vn -0.8275 -0.1359 0.5448
vn 0.8275 -0.1359 0.5448
vn -0.4662 0.8089 0.3583
vn 0.4663 0.8088 0.3583
vn -0.7440 -0.0229 0.6678
vn 0.7440 -0.0229 0.6677
vn -0.7113 -0.6384 0.2942
vn 0.7113 -0.6383 0.2942
vn -0.7098 -0.5020 0.4941
vn 0.7098 -0.5020 0.4941
vn -0.8189 -0.4255 0.3851
vn -0.9925 -0.0715 -0.0988
vn 0.9925 -0.0715 -0.0988
vn 0.8189 -0.4255 0.3851
vn -0.4392 -0.2735 0.8557
vn 0.4392 -0.2736 0.8557
vn -0.4147 -0.0599 0.9080
vn 0.4147 -0.0599 0.9080
vn -0.3416 0.4521 0.8240
vn 0.3416 0.4521 0.8240
vn -0.7245 -0.6850 0.0766
vn -0.9876 -0.1230 0.0980
vn 0.9876 -0.1230 0.0980
vn 0.7245 -0.6850 0.0766
vn -0.5727 -0.0884 0.8150
vn 0.5727 -0.0884 0.8150
vn -0.2918 -0.1521 0.9443
vn 0.2918 -0.1521 0.9443
vn 0.2397 -0.1286 0.9623
vn -0.2397 -0.1286 0.9623
vn 0.1870 0.3707 0.9097
vn -0.1870 0.3707 0.9097
vn -0.4558 0.4231 0.7831
vn 0.4558 0.4231 0.7831
vn -0.5435 -0.8134 -0.2073
vn -0.5601 -0.8144 -0.1518
vn 0.5601 -0.8144 -0.1517
vn 0.5435 -0.8134 -0.2073
vn -0.6154 -0.0876 -0.7833
vn -0.4473 0.2295 -0.8644
vn 0.4473 0.2295 -0.8644
vn 0.6154 -0.0876 -0.7833
vn -0.5472 -0.8322 -0.0898
vn 0.5472 -0.8322 -0.0898
vn -0.8732 0.4870 -0.0203
vn -0.8654 0.3312 -0.3761
vn 0.8654 0.3312 -0.3761
vn 0.8732 0.4870 -0.0203
vn -0.7488 0.5184 0.4131
vn 0.7488 0.5184 0.4131
vn -0.7662 0.6348 0.0996
vn 0.7662 0.6348 0.0996
vn -0.9532 -0.2483 -0.1725
vn -0.6657 0.6025 -0.4403
vn 0.6657 0.6025 -0.4403
vn 0.9532 -0.2483 -0.1725
vn -0.3227 0.8477 0.4210
vn -0.1886 0.7890 -0.5848
vn 0.1886 0.7890 -0.5848
vn 0.3226 0.8477 0.4210
vn -0.2398 0.7453 -0.6222
vn 0.4943 0.5206 -0.6962
vn -0.4943 0.5206 -0.6962
vn 0.2398 0.7453 -0.6222
vn -0.4807 0.7312 0.4840
vn -0.0000 0.7587 0.6514
vn 0.4807 0.7312 0.4840
vn -0.4892 0.7630 0.4225
vn -0.3631 0.9086 -0.2065
vn 0.3631 0.9086 -0.2065
vn 0.4892 0.7630 0.4225
vn -0.6451 0.6945 0.3186
vn 0.6451 0.6945 0.3186
vn -0.4929 0.8690 0.0431
vn -0.6794 0.7290 -0.0835
vn 0.4929 0.8690 0.0431
vn 0.6794 0.7290 -0.0835
vn -0.3917 0.8260 -0.4053
vn -0.6444 0.5272 -0.5539
vn 0.3917 0.8260 -0.4053
vn 0.6444 0.5272 -0.5539
vn -0.0000 0.8007 -0.5990
vn -0.0000 0.3308 -0.9437
vn -0.0000 0.9997 0.0256
vn -0.0000 -0.2715 -0.9624
vn -0.6853 -0.5832 -0.4362
vn -0.9073 0.2526 -0.3363
vn 0.9073 0.2526 -0.3363
vn 0.6853 -0.5832 -0.4362
vn -0.0000 -0.9843 -0.1762
vn -0.0000 -0.7364 -0.6766
vn -0.0000 -0.9488 -0.3159
vn -0.0000 -0.6483 -0.7614
vn -0.3174 -0.9470 -0.0499
vn -0.8383 -0.4081 0.3615
vn 0.8383 -0.4081 0.3615
vn 0.3174 -0.9470 -0.0499
vn -0.9394 0.3260 0.1061
vn 0.9394 0.3260 0.1061
vn -0.9307 0.3402 0.1348
vn -0.9601 0.2314 0.1568
vn 0.9601 0.2314 0.1568
vn 0.9307 0.3402 0.1348
vn -0.8126 -0.0011 -0.5829
vn -0.9796 0.0934 0.1779
vn 0.9796 0.0934 0.1779
vn 0.8126 -0.0011 -0.5829
vn -0.2725 -0.3012 -0.9138
vn 0.2725 -0.3012 -0.9138
vn -0.0909 -0.7763 -0.6237
vn -0.5069 -0.4882 -0.7105
vn -0.1425 -0.1473 -0.9788
vn -0.6373 0.0933 -0.7650
vn 0.6373 0.0933 -0.7650
vn 0.5069 -0.4882 -0.7105
vn 0.1425 -0.1473 -0.9788
vn 0.0909 -0.7763 -0.6237
vn -0.9373 -0.2543 0.2383
vn 0.9373 -0.2543 0.2383
vn -0.4306 -0.8952 0.1146
vn 0.4306 -0.8952 0.1146
vn -0.1584 -0.9749 0.1567
vn 0.1584 -0.9749 0.1567
vn -0.0000 -0.9159 -0.4015
vn -0.0000 -0.9465 0.3228
vn -0.0000 -0.3368 -0.9416
vn -0.0000 -0.1757 -0.9844
vn -0.5992 -0.7740 0.2046
vn 0.5992 -0.7740 0.2046
vn -0.8910 -0.4233 -0.1640
vn 0.8910 -0.4233 -0.1641
vn -0.8520 0.2193 0.4754
vn 0.8520 0.2193 0.4754
vn -0.5092 0.8522 0.1200
vn 0.5092 0.8523 0.1200
vn -0.6104 0.7592 0.2259
vn 0.6104 0.7592 0.2259
vn -0.1825 0.9818 0.0525
vn 0.1825 0.9818 0.0525
vn 0.5204 0.7704 0.3684
vn -0.5204 0.7704 0.3684
vn 0.8527 0.5043 0.1362
vn -0.8527 0.5043 0.1362
vn -0.0000 0.9702 0.2422
vn -0.7097 0.2619 0.6541
vn 0.0673 -0.0643 0.9957
vn -0.2466 -0.0341 0.9685
vn -0.8097 -0.0102 0.5867
vn 0.2466 -0.0341 0.9685
vn -0.0673 -0.0643 0.9957
vn 0.7097 0.2619 0.6541
vn 0.8097 -0.0102 0.5867
vn -0.4658 -0.0803 0.8812
vn -0.7371 -0.2442 0.6301
vn 0.4658 -0.0803 0.8812
vn 0.7371 -0.2442 0.6301
vn -0.2120 -0.0860 0.9735
vn -0.3675 -0.3765 0.8504
vn 0.2120 -0.0860 0.9735
vn 0.3675 -0.3765 0.8504
vn -0.4303 0.5566 0.7106
vn -0.0201 -0.0730 0.9971
vn 0.0201 -0.0729 0.9971
vn 0.4303 0.5566 0.7106
vn -0.0910 0.5973 0.7968
vn -0.1879 -0.0916 0.9779
vn 0.1879 -0.0916 0.9779
vn 0.0910 0.5973 0.7968
vn 0.1658 0.6095 0.7753
vn -0.2033 0.0925 0.9747
vn 0.2033 0.0925 0.9747
vn -0.1659 0.6094 0.7753
vn 0.2693 0.2417 0.9322
vn -0.3142 -0.1324 0.9401
vn 0.3142 -0.1324 0.9401
vn -0.2693 0.2417 0.9322
vn 0.4201 -0.1190 0.8997
vn -0.1198 -0.0709 0.9903
vn 0.1198 -0.0709 0.9903
vn -0.4201 -0.1190 0.8997
vn 0.2261 -0.6066 0.7622
vn -0.3208 0.0407 0.9463
vn 0.3208 0.0407 0.9463
vn -0.2261 -0.6066 0.7622
vn 0.2326 -0.7461 0.6239
vn -0.0746 -0.3916 0.9171
vn 0.0746 -0.3916 0.9171
vn -0.2326 -0.7461 0.6239
vn -0.1213 -0.3139 0.9417
vn -0.1467 -0.0357 0.9885
vn 0.1467 -0.0357 0.9885
vn 0.1213 -0.3139 0.9417
vn -0.2168 -0.2737 0.9370
vn -0.1874 0.0012 0.9823
vn 0.1874 0.0012 0.9823
vn 0.2168 -0.2737 0.9370
vn -0.3030 -0.2020 0.9313
vn -0.2531 -0.1618 0.9538
vn 0.2531 -0.1618 0.9538
vn 0.3030 -0.2019 0.9313
vn -0.1401 -0.0912 0.9859
vn 0.1401 -0.0912 0.9859
vn -0.2380 0.0502 0.9700
vn 0.2380 0.0502 0.9700
vn -0.3126 -0.2380 0.9196
vn 0.3127 -0.2380 0.9196
vn -0.3738 -0.1052 0.9215
vn 0.3738 -0.1052 0.9215
vn -0.4706 -0.1647 0.8669
vn 0.4706 -0.1647 0.8669
vn -0.4392 -0.3761 0.8158
vn 0.4392 -0.3761 0.8158
vn -0.2196 -0.5407 0.8121
vn 0.2196 -0.5407 0.8121
vn 0.1670 -0.3748 0.9119
vn -0.1670 -0.3748 0.9119
vn 0.2019 -0.2776 0.9392
vn -0.2019 -0.2776 0.9392
vn 0.0012 -0.1656 0.9862
vn -0.0012 -0.1656 0.9862
vn 0.2929 -0.1741 0.9402
vn -0.2929 -0.1741 0.9402
vn -0.0000 0.7322 0.6811
vn -0.0000 -0.6037 0.7972
vn -0.0000 -0.9718 0.2359
vn 0.1318 -0.6083 0.7827
vn -0.1318 -0.6083 0.7827
vn 0.7591 0.0684 0.6474
vn -0.7591 0.0684 0.6474
vn 0.4060 0.6436 0.6488
vn -0.4060 0.6436 0.6488
vn -0.0000 0.5984 0.8012
vn 0.0738 -0.3306 0.9409
vn -0.0000 -0.1246 0.9922
vn -0.0739 -0.3306 0.9409
vn -0.0851 -0.3392 0.9368
vn 0.0851 -0.3392 0.9368
vn -0.1419 -0.1484 0.9787
vn 0.1419 -0.1484 0.9787
vn -0.0000 -0.4829 0.8757
vn -0.6930 -0.0013 0.7209
vn -0.0957 -0.3259 0.9405
vn 0.0955 -0.3261 0.9405
vn 0.6930 -0.0013 0.7209
vn -0.6467 0.1626 0.7452
vn 0.6467 0.1626 0.7452
vn -0.5935 0.1218 0.7956
vn 0.5935 0.1218 0.7956
vn -0.1244 0.0097 0.9922
vn -0.5100 -0.4577 0.7283
vn 0.5100 -0.4577 0.7283
vn 0.1244 0.0097 0.9922
vn -0.9721 -0.1679 0.1636
vn 0.9721 -0.1679 0.1636
vn -0.7160 0.5722 0.4000
vn 0.7160 0.5721 0.3999
vn -0.0000 0.4306 0.9026
vn -0.0000 0.0109 0.9999
vn -0.2218 -0.6060 0.7639
vn -0.0000 -0.4930 0.8700
vn -0.0000 0.0104 0.9999
vn -0.2943 -0.1845 0.9377
vn 0.2218 -0.6060 0.7639
vn 0.2943 -0.1845 0.9377
vn -0.3969 0.5350 0.7458
vn 0.2477 0.5682 0.7847
vn -0.2477 0.5682 0.7847
vn 0.3969 0.5350 0.7458
vn -0.8682 -0.2613 0.4217
vn -0.5560 -0.6907 0.4624
vn 0.8682 -0.2613 0.4217
vn 0.5560 -0.6907 0.4624
vn -0.7531 0.6499 0.1023
vn 0.7531 0.6499 0.1023
vn 0.1942 0.9357 0.2944
vn -0.1942 0.9357 0.2944
vn -0.0000 0.7890 0.6144
vn -0.0000 -0.8886 0.4586
vn -0.0000 -0.3368 0.9416
vn -0.0000 0.0468 -0.9989
vn -0.0000 0.9419 0.3360
vn -0.0000 -0.7452 0.6668
vn -0.1884 -0.0401 0.9813
vn -0.0000 -0.0329 0.9995
vn 0.1884 -0.0401 0.9813
vn -0.0000 -0.0000 1.0000
vn -0.5720 -0.0187 0.8200
vn -0.5362 -0.2127 0.8169
vn 0.5364 -0.2124 0.8168
vn 0.5720 -0.0187 0.8200
vn -0.3577 -0.6383 0.6816
vn 0.3577 -0.6383 0.6816
vn -0.1543 -0.7541 0.6384
vn 0.1543 -0.7541 0.6384
vn -0.0000 -0.7435 0.6687
vn -0.0000 -0.1891 0.9820
vn -0.0000 -0.1145 0.9934
vn 0.0014 -0.0556 0.9985
vn -0.0014 -0.0556 0.9985
vn -0.3363 -0.5129 0.7899
vn 0.3363 -0.5129 0.7899
vn -0.4546 -0.3371 0.8245
vn 0.4546 -0.3371 0.8245
vn -0.5435 -0.3086 0.7806
vn 0.5435 -0.3086 0.7806
vn -0.3872 -0.1878 0.9027
vn 0.3872 -0.1878 0.9027
vn -0.4307 -0.1449 0.8908
vn 0.4307 -0.1449 0.8908
vn -0.2340 -0.1205 0.9647
vn 0.2340 -0.1205 0.9647
vn -0.2638 0.1688 0.9497
vn 0.2638 0.1688 0.9497
vn 0.1967 0.1419 0.9701
vn -0.1967 0.1419 0.9701
vn -0.9068 -0.0083 0.4215
vn -0.7442 -0.6409 0.1883
vn 0.7442 -0.6409 0.1883
vn 0.9068 -0.0097 0.4215
vn -0.0442 -0.9744 0.2203
vn 0.0442 -0.9744 0.2203
vn 0.6400 -0.7615 0.1028
vn -0.6400 -0.7615 0.1028
vn 0.9555 -0.0114 0.2947
vn -0.9555 -0.0114 0.2947
vn 0.6497 0.7544 0.0936
vn -0.6497 0.7544 0.0936
vn -0.0370 0.9789 0.2009
vn 0.0370 0.9789 0.2009
vn -0.7524 0.6354 0.1737
vn 0.7523 0.6354 0.1738
vn -0.8118 -0.0028 0.5839
vn -0.5970 0.4868 0.6377
vn 0.5970 0.4868 0.6377
vn 0.8118 -0.0028 0.5839
vn -0.8682 -0.0058 0.4961
vn -0.7195 0.4730 0.5085
vn 0.7195 0.4730 0.5085
vn 0.8682 -0.0058 0.4961
vn -0.2042 0.8288 0.5210
vn -0.0958 0.7173 0.6901
vn 0.0958 0.7173 0.6901
vn 0.2043 0.8288 0.5210
vn 0.4517 0.4599 0.7645
vn -0.4517 0.4599 0.7645
vn 0.4504 0.6939 0.5618
vn -0.4504 0.6939 0.5618
vn 0.8056 0.1094 0.5823
vn 0.6915 -0.0741 0.7186
vn -0.6915 -0.0741 0.7186
vn -0.8056 0.1094 0.5823
vn 0.3862 -0.4747 0.7909
vn -0.3862 -0.4747 0.7909
vn 0.5578 -0.6291 0.5414
vn -0.5578 -0.6291 0.5414
vn -0.0912 -0.7237 0.6840
vn -0.1997 -0.8581 0.4731
vn 0.0912 -0.7237 0.6840
vn 0.1997 -0.8581 0.4731
vn -0.5980 -0.4965 0.6292
vn 0.5980 -0.4965 0.6292
vn -0.7232 -0.4889 0.4878
vn 0.7232 -0.4889 0.4878
vt 0.892960 0.931372
vt 0.909294 0.904720
vt 0.922617 0.920329
vt 0.518924 0.982967
vt 0.509698 0.967891
vt 0.535567 0.956025
vt 0.886074 0.904720
vt 0.513513 0.944066
vt 0.871191 0.920773
vt 0.526774 0.929621
vt 0.870460 0.942697
vt 0.503930 0.986318
vt 0.487697 0.974051
vt 0.509698 0.958799
vt 0.884948 0.959237
vt 0.483784 0.950781
vt 0.905812 0.959908
vt 0.492145 0.932889
vt 0.923051 0.943184
vt 0.509698 0.929621
vt 0.535567 0.985473
vt 0.669386 0.257975
vt 0.646765 0.260134
vt 0.655893 0.253226
vt 0.648417 0.293438
vt 0.643027 0.280240
vt 0.661910 0.298187
vt 0.746439 0.372948
vt 0.738143 0.395288
vt 0.708090 0.378704
vt 0.730482 0.350479
vt 0.536967 0.371583
vt 0.570426 0.426717
vt 0.504649 0.444123
vt 0.682209 0.128121
vt 0.670327 0.192135
vt 0.619410 0.156782
vt 0.386308 0.943641
vt 0.387078 0.989232
vt 0.372634 0.988895
vt 0.607308 0.147207
vt 0.596459 0.138147
vt 0.628586 0.090055
vt 0.513210 0.637518
vt 0.492299 0.612419
vt 0.542394 0.600010
vt 0.165554 0.293824
vt 0.197797 0.334011
vt 0.155603 0.348286
vt 0.439493 0.507958
vt 0.449678 0.529784
vt 0.439260 0.536189
vt 0.872419 0.756192
vt 0.864917 0.745503
vt 0.874215 0.728407
vt 0.781701 0.504086
vt 0.797851 0.503597
vt 0.796811 0.539268
vt 0.923988 0.335798
vt 0.912673 0.305851
vt 0.929888 0.302682
vt 0.924498 0.053860
vt 0.934831 0.096083
vt 0.903569 0.124309
vt 0.866739 0.511186
vt 0.910930 0.537107
vt 0.911626 0.580105
vt 0.744886 0.955308
vt 0.708754 0.987526
vt 0.708754 0.922782
vt 0.734574 0.909030
vt 0.357014 0.842560
vt 0.350616 0.905228
vt 0.312006 0.880525
vt 0.403543 0.983155
vt 0.387078 0.943640
vt 0.419109 0.943640
vt 0.279743 0.290366
vt 0.301546 0.400417
vt 0.274951 0.380191
vt 0.241574 0.320014
vt 0.305164 0.745434
vt 0.287553 0.776894
vt 0.287553 0.672123
vt 0.357014 0.959557
vt 0.730404 0.240001
vt 0.742307 0.220140
vt 0.759027 0.248327
vt 0.791532 0.233101
vt 0.764789 0.897730
vt 0.816435 0.902422
vt 0.783247 0.927512
vt 0.816435 0.927732
vt 0.866739 0.585745
vt 0.810107 0.348211
vt 0.756564 0.294174
vt 0.842500 0.283969
vt 0.870460 0.846040
vt 0.862768 0.897730
vt 0.773386 0.897730
vt 0.765104 0.837865
vt 0.837570 0.214347
vt 0.864950 0.800262
vt 0.764789 0.767881
vt 0.723516 0.277398
vt 0.814014 0.962442
vt 0.779838 0.964775
vt 0.748344 0.348211
vt 0.723450 0.333080
vt 0.936875 0.000000
vt 0.947502 0.037825
vt 0.903569 0.016257
vt 0.901001 0.302682
vt 0.898773 0.285539
vt 0.948953 0.290279
vt 0.944729 0.264124
vt 0.948369 0.085212
vt 0.551849 0.813329
vt 0.569788 0.802658
vt 0.593948 0.841983
vt 0.611235 0.837340
vt 0.844198 0.179596
vt 0.866528 0.125073
vt 0.861506 0.184243
vt 0.886483 0.137812
vt 0.955235 0.706889
vt 0.982717 0.701272
vt 0.982717 0.767637
vt 0.542888 0.742096
vt 0.869179 0.058212
vt 0.903569 0.075063
vt 0.570508 0.678698
vt 0.602803 0.666359
vt 0.568196 0.734643
vt 0.844198 0.000000
vt 0.886041 0.022211
vt 0.898773 0.310349
vt 0.898773 0.348976
vt 0.813118 0.500913
vt 0.825487 0.541332
vt 0.660788 0.932343
vt 0.663357 0.946042
vt 0.627388 0.966427
vt 0.651818 0.985945
vt 0.851218 0.515617
vt 0.811320 0.488114
vt 0.653072 0.915988
vt 0.623520 0.922231
vt 0.848469 0.471093
vt 0.817253 0.470232
vt 0.647920 0.897045
vt 0.997802 0.720512
vt 0.982717 0.752576
vt 0.982717 0.701272
vt 0.822077 0.449228
vt 0.830459 0.423439
vt 0.425157 0.942189
vt 0.426291 0.919913
vt 0.439533 0.927117
vt 0.446580 0.918233
vt 0.845402 0.558704
vt 0.865320 0.557812
vt 0.852782 0.567532
vt 0.865320 0.584998
vt 0.445423 0.962011
vt 0.435075 0.950337
vt 0.446001 0.940122
vt 0.459085 0.940716
vt 0.805956 0.430339
vt 0.807103 0.445318
vt 0.788997 0.443087
vt 0.795514 0.421281
vt 0.425157 0.968432
vt 0.718890 0.811803
vt 0.727417 0.826718
vt 0.710455 0.838306
vt 0.781955 0.457847
vt 0.803095 0.466774
vt 0.714795 0.855762
vt 0.730326 0.845270
vt 0.778599 0.477123
vt 0.797260 0.485547
vt 0.870460 0.959908
vt 0.890227 0.965672
vt 0.870460 0.980288
vt 0.861807 0.976540
vt 0.866576 0.999562
vt 0.851857 0.990315
vt 0.843975 0.978116
vt 0.852571 0.969011
vt 0.663357 0.909237
vt 0.866576 0.958531
vt 0.821223 0.427655
vt 0.984016 0.633532
vt 0.973981 0.629404
vt 0.955235 0.590268
vt 0.971084 0.589657
vt 0.968938 0.539542
vt 0.975502 0.549712
vt 0.969603 0.021062
vt 0.958162 0.055878
vt 0.958837 0.026594
vt 0.948369 0.060912
vt 0.985648 0.678271
vt 0.977052 0.672150
vt 0.961068 0.096854
vt 0.956287 0.101160
vt 0.965246 0.701272
vt 0.955235 0.694800
vt 0.623038 0.932488
vt 0.611727 0.960262
vt 0.613542 0.932572
vt 0.601203 0.961036
vt 0.612769 0.802371
vt 0.623354 0.796629
vt 0.623510 0.825678
vt 0.612769 0.831094
vt 0.623038 0.986327
vt 0.614124 0.986132
vt 0.722208 0.869402
vt 0.734352 0.865229
vt 0.719571 0.901387
vt 0.708754 0.905277
vt 0.330426 0.616526
vt 0.350297 0.595149
vt 0.353533 0.607156
vt 0.228147 0.877788
vt 0.218897 0.901988
vt 0.218897 0.873059
vt 0.742261 0.842789
vt 0.364860 0.575862
vt 0.369193 0.587714
vt 0.983801 0.541700
vt 0.295572 0.870886
vt 0.295572 0.856254
vt 0.304095 0.858226
vt 0.948605 0.018717
vt 0.287553 0.871805
vt 0.287553 0.856254
vt 0.295572 0.875302
vt 0.985648 0.629860
vt 0.988414 0.622210
vt 0.998323 0.623607
vt 0.996882 0.632329
vt 0.876591 0.333560
vt 0.876654 0.343742
vt 0.865777 0.343886
vt 0.865777 0.332597
vt 0.900606 0.988438
vt 0.890227 0.986798
vt 0.903617 0.974141
vt 0.893810 0.971181
vt 0.802892 0.424496
vt 0.819725 0.420974
vt 0.900606 0.961547
vt 0.890227 0.959908
vt 0.856290 0.346792
vt 0.856290 0.332841
vt 0.864651 0.347188
vt 0.865778 0.332597
vt 0.708754 0.788931
vt 0.716918 0.785541
vt 0.727054 0.808414
vt 0.403207 0.564082
vt 0.428143 0.558967
vt 0.429307 0.569761
vt 0.404370 0.574876
vt 0.737921 0.825333
vt 0.382581 0.566604
vt 0.386615 0.578659
vt 0.489399 0.861402
vt 0.510990 0.849172
vt 0.487363 0.903411
vt 0.514209 0.925285
vt 0.362454 0.519908
vt 0.400092 0.550554
vt 0.755789 0.816779
vt 0.743595 0.800076
vt 0.763854 0.814401
vt 0.483784 0.929621
vt 0.374079 0.554960
vt 0.775887 0.425932
vt 0.764148 0.443208
vt 0.753481 0.442486
vt 0.763377 0.839338
vt 0.354984 0.561940
vt 0.378147 0.555410
vt 0.779707 0.452457
vt 0.773872 0.471229
vt 0.723990 0.769800
vt 0.936191 0.590268
vt 0.936191 0.555435
vt 0.955235 0.571284
vt 0.205413 0.963799
vt 0.205413 0.987615
vt 0.197106 0.977718
vt 0.794015 0.414600
vt 0.799333 0.392231
vt 0.842473 0.767834
vt 0.985648 0.590268
vt 0.822332 0.412252
vt 0.811664 0.383742
vt 0.169794 0.989455
vt 0.156908 0.972406
vt 0.169794 0.963799
vt 0.842473 0.733630
vt 0.978250 0.000000
vt 0.833365 0.393046
vt 0.197106 0.963799
vt 0.197106 0.985563
vt 0.183926 0.966116
vt 0.759294 0.465065
vt 0.746439 0.466509
vt 0.536645 0.834300
vt 0.534116 0.902999
vt 0.374015 0.492771
vt 0.439993 0.474049
vt 0.583366 0.932488
vt 0.601203 0.942415
vt 0.574272 0.959534
vt 0.601203 0.983718
vt 0.817297 0.350479
vt 0.840961 0.375215
vt 0.996879 0.254094
vt 0.981474 0.287562
vt 0.981474 0.240273
vt 0.483784 0.813517
vt 0.485010 0.520899
vt 0.757496 0.866353
vt 0.335434 0.582251
vt 0.739334 0.909031
vt 0.312006 0.609768
vt 0.989239 0.817877
vt 0.989239 0.857023
vt 0.973732 0.856705
vt 0.944592 0.891172
vt 0.923861 0.875284
vt 0.950875 0.879534
vt 0.924507 0.857224
vt 0.140479 0.950329
vt 0.155525 0.964422
vt 0.140479 0.986819
vt 0.154165 0.991726
vt 0.951245 0.928398
vt 0.961387 0.928868
vt 0.978250 0.139301
vt 0.966733 0.131270
vt 0.971665 0.093874
vt 0.942758 0.963156
vt 0.952268 0.971663
vt 0.969526 0.043066
vt 0.958898 0.577500
vt 0.958898 0.518254
vt 0.853008 0.450868
vt 0.846873 0.463522
vt 0.831343 0.416371
vt 0.611235 0.683740
vt 0.582188 0.736694
vt 0.866739 0.448170
vt 0.579132 0.788256
vt 0.865024 0.518110
vt 0.851810 0.505880
vt 0.611024 0.815786
vt 0.819920 0.557812
vt 0.815935 0.537917
vt 0.961387 0.863976
vt 0.933403 0.253690
vt 0.768636 0.557812
vt 0.776854 0.538653
vt 0.935928 0.211590
vt 0.948953 0.215322
vt 0.748859 0.505768
vt 0.760178 0.495047
vt 0.928129 0.187005
vt 0.941429 0.184243
vt 0.217953 0.250238
vt 0.181856 0.228345
vt 0.565116 0.529517
vt 0.522879 0.525085
vt 0.258267 0.264777
vt 0.470291 0.587475
vt 0.228559 0.403975
vt 0.186873 0.433562
vt 0.429110 0.666359
vt 0.421067 0.637842
vt 0.403138 0.604375
vt 0.357014 0.989232
vt 0.470847 0.375609
vt 0.652980 0.052644
vt 0.731359 0.060695
vt 0.433686 0.395548
vt 0.745292 0.151545
vt 0.755401 0.110980
vt 0.744979 0.194608
vt 0.059526 0.541475
vt 0.012973 0.530936
vt 0.055559 0.488284
vt 0.295646 0.426712
vt 0.312006 0.367695
vt 0.347200 0.599610
vt 0.321555 0.548212
vt 0.085600 0.478938
vt 0.113439 0.528690
vt 0.319650 0.490739
vt 0.112344 0.463696
vt 0.172208 0.509137
vt 0.285485 0.890843
vt 0.285485 0.966017
vt 0.238964 0.933608
vt 0.189974 0.458984
vt 0.264641 0.823148
vt 0.259687 0.867385
vt 0.229897 0.861331
vt 0.275699 0.630922
vt 0.234211 0.662451
vt 0.245358 0.622471
vt 0.229897 0.876293
vt 0.708754 0.897045
vt 0.682102 0.893922
vt 0.696289 0.805043
vt 0.842473 0.590268
vt 0.915947 0.623798
vt 0.913957 0.660426
vt 0.057429 0.964199
vt 0.057429 0.888812
vt 0.082020 0.901069
vt 0.729809 0.487747
vt 0.658053 0.866335
vt 0.661034 0.833394
vt 0.958898 0.437868
vt 0.993503 0.454149
vt 0.958898 0.518254
vt 0.991426 0.484635
vt 0.870460 0.834979
vt 0.923861 0.767881
vt 0.923861 0.904720
vt 0.842473 0.728407
vt 0.623520 0.414014
vt 0.648058 0.512108
vt 0.165846 0.532301
vt 0.206300 0.522424
vt 0.207298 0.568757
vt 0.229897 0.569050
vt 0.273922 0.549466
vt 0.273473 0.601707
vt 0.245557 0.553931
vt 0.229897 0.600759
vt 0.148724 0.630134
vt 0.103749 0.577999
vt 0.746439 0.538092
vt 0.681836 0.567931
vt 0.080381 0.647856
vt 0.048627 0.589515
vt 0.407129 0.086111
vt 0.381892 0.044990
vt 0.448599 0.036938
vt 0.472153 0.070909
vt 0.018190 0.640984
vt -0.000000 0.580450
vt 0.456582 0.130198
vt 0.515073 0.106451
vt 0.380589 0.345007
vt 0.361460 0.298933
vt 0.471750 0.350479
vt 0.258246 0.458984
vt 0.568512 0.178835
vt 0.588315 0.134990
vt 0.596459 0.086193
vt 0.543952 0.067351
vt 0.500720 0.032785
vt 0.479435 -0.000000
vt 0.972928 0.363520
vt 0.991187 0.350479
vt 0.991187 0.412902
vt 0.721746 0.590268
vt 0.192677 0.496836
vt 0.424398 0.236853
vt 0.518059 0.283525
vt 0.312006 0.254846
vt 0.351508 0.170826
vt 0.113047 0.726259
vt 0.194953 0.706344
vt 0.223399 0.767526
vt 0.155056 0.785248
vt 0.069807 0.358102
vt 0.080390 0.458984
vt 0.596459 0.286879
vt -0.000000 0.400780
vt 0.019408 0.324394
vt 0.669946 0.002284
vt 0.726588 0.000000
vt 0.382106 0.415310
vt 0.652784 0.194608
vt 0.425157 0.800781
vt 0.445517 0.789599
vt 0.454843 0.800826
vt 0.123439 0.826473
vt 0.086001 0.837945
vt 0.129984 0.811606
vt 0.574483 0.403749
vt 0.213183 0.144427
vt 0.209793 0.160869
vt 0.167740 0.136674
vt 0.177465 0.121343
vt 0.611487 0.414019
vt 0.611155 0.391668
vt 0.110305 0.213523
vt 0.623520 0.539948
vt 0.079953 0.287339
vt 0.605452 0.621227
vt 0.026191 0.269377
vt 0.252680 0.725583
vt 0.229897 0.676945
vt 0.266588 0.715130
vt 0.240998 0.672123
vt 0.326909 0.999544
vt 0.312006 0.999544
vt 0.313638 0.959557
vt 0.998650 0.518254
vt 0.998650 0.568305
vt 0.983801 0.559237
vt 0.465082 0.806709
vt 0.475603 0.790269
vt 0.473961 0.813517
vt 0.484195 0.803325
vt 0.156908 0.785248
vt 0.155780 0.800305
vt 0.147211 0.787415
vt 0.139269 0.799227
vt 0.469527 0.776982
vt 0.458942 0.747868
vt 0.156908 0.840132
vt 0.154893 0.813540
vt 0.239802 0.114686
vt 0.275005 0.058902
vt 0.273985 0.108961
vt 0.242332 0.141976
vt 0.145113 0.885483
vt 0.112993 0.852617
vt 0.209967 0.105997
vt 0.746439 0.557812
vt 0.772637 0.557812
vt 0.750894 0.590208
vt 0.215641 0.017439
vt 0.245421 0.033948
vt 0.208143 0.062012
vt 0.241213 0.074869
vt 0.124021 0.054311
vt 0.112393 0.010611
vt 0.151131 0.052011
vt 0.149127 0.005770
vt 0.159290 0.097107
vt 0.103003 0.891429
vt 0.087350 0.840747
vt 0.459085 0.975211
vt 0.459085 0.918233
vt 0.481024 0.944953
vt 0.205614 0.931836
vt 0.226410 0.904159
vt 0.226410 0.969936
vt 0.360424 0.943640
vt 0.374413 0.911991
vt 0.405883 0.940886
vt 0.258387 0.013507
vt 0.268632 0.024921
vt 0.978250 0.062665
vt 0.994664 0.045634
vt 0.994664 0.102741
vt 0.379260 0.897047
vt 0.406777 0.908498
vt 0.231121 0.000000
vt 0.378442 0.871048
vt 0.405000 0.878579
vt 0.596459 0.263915
vt 0.615386 0.260221
vt 0.606567 0.300701
vt 0.184136 0.002705
vt 0.380353 0.842560
vt 0.406777 0.849380
vt 0.175795 0.050321
vt 0.179479 0.099755
vt 0.973732 0.767881
vt 0.995092 0.787879
vt 0.973732 0.817877
vt 0.140334 0.131648
vt 0.287553 0.761144
vt 0.260029 0.767722
vt 0.430252 0.366006
vt 0.476212 0.359279
vt 0.285040 0.825904
vt 0.373829 0.399715
vt 0.287430 0.876293
vt 0.308892 0.634471
vt 0.251384 0.672123
vt 0.843975 0.996197
vt 0.816435 0.991332
vt 0.816435 0.958531
vt 0.842467 0.969459
vt 0.304098 0.598404
vt 0.229897 0.521430
vt 0.961387 0.967474
vt 0.961387 0.916349
vt 0.985043 0.935928
vt 0.303558 0.539705
vt 0.894843 0.252868
vt 0.873691 0.239125
vt 0.898773 0.205867
vt 0.878192 0.184243
vt 0.308892 0.484996
vt 0.278064 0.502557
vt 0.623520 0.855752
vt 0.629502 0.817008
vt 0.291999 0.458984
vt 0.265162 0.478781
vt 0.668623 0.785763
vt 0.942965 0.404038
vt 0.949811 0.350479
vt 0.972928 0.353894
vt 0.967096 0.402209
vt 0.681226 0.769800
vt 0.708754 0.779532
vt 0.944902 0.424566
vt 0.972928 0.428750
vt 0.755131 0.934078
vt 0.748031 0.933693
vt 0.750544 0.920680
vt 0.759108 0.923769
vt 0.744982 0.652666
vt 0.754795 0.663727
vt 0.748171 0.666290
vt 0.738405 0.658158
vt 0.757340 0.909031
vt 0.763173 0.911999
vt 0.729278 0.644581
vt 0.725650 0.649052
vt 0.140479 0.895026
vt 0.145408 0.891429
vt 0.154967 0.905580
vt 0.147342 0.909312
vt 0.305164 0.690949
vt 0.305164 0.672123
vt 0.310415 0.674413
vt 0.711408 0.640858
vt 0.710054 0.648691
vt 0.751985 0.948021
vt 0.744886 0.947636
vt 0.760903 0.676200
vt 0.754278 0.678763
vt 0.763173 0.976605
vt 0.757995 0.980192
vt 0.752533 0.712157
vt 0.746582 0.710337
vt 0.297521 0.836141
vt 0.303556 0.837728
vt 0.287553 0.851428
vt 0.291482 0.856254
vt 0.733472 0.727854
vt 0.226323 0.841811
vt 0.220958 0.842862
vt 0.218897 0.824145
vt 0.300888 0.807867
vt 0.308847 0.807870
vt 0.908369 0.728407
vt 0.915618 0.760187
vt 0.908369 0.760377
vt 0.218897 0.873059
vt 0.295879 0.792421
vt 0.302593 0.787517
vt 0.617711 0.922239
vt 0.607051 0.908983
vt 0.622020 0.915209
vt 0.614695 0.905963
vt 0.287553 0.783425
vt 0.293554 0.776894
vt 0.603584 0.895231
vt 0.611918 0.893382
vt 0.990367 0.859276
vt 0.995139 0.857224
vt 0.987157 0.892617
vt 0.995139 0.895630
vt 0.606746 0.859929
vt 0.612331 0.861291
vt 0.147102 0.935366
vt 0.151845 0.937534
vt 0.140479 0.950329
vt 0.307041 0.709022
vt 0.305164 0.690949
vt 0.310477 0.690949
vt 0.618685 0.841983
vt 0.622020 0.845992
vt 0.151728 0.922876
vt 0.156908 0.923397
vt 0.687184 0.659009
vt 0.695915 0.647288
vt 0.698959 0.652125
vt 0.690951 0.662392
vt 0.884530 0.479278
vt 0.896936 0.484143
vt 0.885750 0.503085
vt 0.876448 0.494564
vt 0.687636 0.638244
vt 0.707521 0.627884
vt 0.873042 0.511186
vt 0.866739 0.501419
vt 0.677461 0.652873
vt 0.414276 0.848313
vt 0.423599 0.842560
vt 0.422363 0.867138
vt 0.406777 0.865592
vt 0.673382 0.678110
vt 0.686691 0.677779
vt 0.414670 0.902965
vt 0.423599 0.909678
vt 0.664387 0.721379
vt 0.675403 0.714886
vt 0.407603 0.915543
vt 0.415836 0.927629
vt 0.674302 0.739231
vt 0.684495 0.727401
vt 0.842232 0.135285
vt 0.834705 0.148789
vt 0.818592 0.136275
vt 0.826876 0.125977
vt 0.696721 0.749678
vt 0.702467 0.737915
vt 0.808456 0.096605
vt 0.823026 0.095203
vt 0.735150 0.738658
vt 0.612769 0.796629
vt 0.612769 0.759949
vt 0.622959 0.791172
vt 0.811002 0.066615
vt 0.824846 0.069444
vt 0.973217 0.272790
vt 0.958510 0.288195
vt 0.948953 0.277391
vt 0.962149 0.264006
vt 0.835993 0.035113
vt 0.844198 0.040365
vt 0.981474 0.229447
vt 0.970423 0.229254
vt 0.884629 0.344442
vt 0.876654 0.347980
vt 0.876654 0.332597
vt 0.872356 0.417765
vt 0.881983 0.424786
vt 0.875819 0.429805
vt 0.980665 0.215469
vt 0.972199 0.216095
vt 0.885492 0.459755
vt 0.898274 0.457270
vt 0.731378 0.634489
vt 0.881955 0.442100
vt 0.891622 0.437539
vt 0.967049 0.184243
vt 0.976535 0.199490
vt 0.966801 0.203972
vt 0.643712 0.269518
vt 0.659572 0.275605
vt 0.671481 0.274661
vt 0.673819 0.297243
vt 0.183926 0.963799
vt 0.183926 0.982986
vt 0.169794 0.967110
vt 0.169794 0.986298
vt 0.743104 0.208870
vt 0.740404 0.194608
vt 0.755017 0.196367
vt 0.755017 0.212806
vt 0.929888 0.315220
vt 0.935041 0.302682
vt 0.946954 0.307112
vt 0.945062 0.317712
vt 0.844198 0.334297
vt 0.856290 0.332597
vt 0.852704 0.348538
vt 0.844198 0.348557
vt 0.931153 0.331426
vt 0.943975 0.331931
vt 0.946954 0.347831
vt 0.934132 0.347326
vt 0.944630 0.341054
vt 0.931809 0.340548
vt 0.989272 0.323942
vt 0.994634 0.323422
vt 0.987248 0.335352
vt 0.984665 0.332914
vt 0.978905 0.344095
vt 0.977475 0.339447
vt 0.989860 0.307752
vt 0.995393 0.306314
vt 0.653378 0.252492
vt 0.665343 0.244376
vt 0.666776 0.250741
vt 0.653782 0.257384
vt 0.978570 0.294811
vt 0.977475 0.288195
vt 0.686811 0.255486
vt 0.681295 0.257031
vt 0.675347 0.274927
vt 0.678089 0.302400
vt 0.513554 0.779426
vt 0.542888 0.796104
vt 0.156908 0.963799
vt 0.205614 0.934596
vt 0.194732 0.962645
vt 0.412507 0.833198
vt 0.386252 0.819027
vt 0.417544 0.817712
vt 0.508310 0.765429
vt 0.420139 0.802430
vt 0.387011 0.802399
vt 0.498148 0.738837
vt 0.425157 0.771041
vt 0.388795 0.770899
vt 0.821665 0.557812
vt 0.845402 0.558303
vt 0.821665 0.588017
vt 0.823115 0.954152
vt 0.845628 0.939621
vt 0.858273 0.958531
vt 0.365473 0.811768
vt 0.357737 0.776846
vt 0.865047 0.949127
vt 0.861666 0.936232
vt 0.374572 0.823558
vt 1.000000 0.183248
vt 0.991786 0.172735
vt 1.000000 0.156899
vt 0.228480 0.824145
vt 0.218897 0.798809
vt 0.228480 0.785248
vt 0.373378 0.842560
vt 0.953481 0.158155
vt 0.942250 0.182466
vt 0.942250 0.141243
vt 0.343259 0.959557
vt 0.356819 0.973729
vt 0.343259 0.990736
vt 0.866739 0.368192
vt 0.896231 0.350479
vt 0.910100 0.391527
vt 0.974968 0.151044
vt 0.915947 0.747178
vt 0.945263 0.730305
vt 0.945263 0.767804
vt 0.852153 0.923970
vt 0.832503 0.918890
vt 0.845254 0.905715
vt 0.862059 0.921215
vt 0.723450 0.213309
vt 0.723450 0.194608
vt 0.740404 0.199554
vt 0.066075 0.989677
vt 0.057429 0.969776
vt 0.066075 0.964199
vt 0.911626 0.573727
vt 0.911626 0.556700
vt 0.920691 0.577222
vt 0.932437 0.565988
vt 0.821665 0.557812
vt 0.821665 0.581701
vt 0.806571 0.564639
vt 0.806091 0.574713
vt 0.865047 0.929262
vt 0.850825 0.932290
vt 0.615747 0.831094
vt 0.623510 0.831094
vt 0.622208 0.841377
vt 0.816435 0.897730
vt 0.823557 0.905422
vt 0.816510 0.910032
vt 0.974968 0.167054
vt 0.984369 0.154053
vt 0.982423 0.172202
vt 0.993770 0.154227
vt 0.797989 0.578864
vt 0.818244 0.589160
vt 0.983144 0.144990
vt 0.991553 0.141243
vt 0.799549 0.564041
vt 0.934214 0.571626
vt 0.923554 0.584859
vt 0.903617 0.967872
vt 0.904940 0.959908
vt 0.917903 0.971048
vt 0.916162 0.980022
vt 0.827245 0.926193
vt 0.824548 0.933613
vt 0.614744 0.718498
vt 0.613040 0.699206
vt 0.623520 0.716019
vt 0.621538 0.694197
vt 0.936050 0.585745
vt 0.304095 0.856254
vt 0.311270 0.864477
vt 0.304095 0.871902
vt 0.903617 0.984562
vt 0.973298 0.434033
vt 0.972928 0.419504
vt 0.982576 0.434100
vt 0.982576 0.412902
vt 0.978250 0.102741
vt 0.990151 0.108729
vt 0.984463 0.124139
vt 0.994166 0.123820
vt 0.978250 0.137846
vt 0.617357 0.666359
vt 0.623520 0.679700
vt 0.612769 0.682073
vt 0.884629 0.346711
vt 0.884629 0.332597
vt 0.892823 0.334609
vt 0.312006 0.733080
vt 0.312518 0.725644
vt 0.335832 0.728677
vt 0.332921 0.709358
vt 0.356499 0.714147
vt 0.359129 0.720762
vt 0.342030 0.780952
vt 0.326323 0.785058
vt 0.346871 0.807503
vt 0.330916 0.820801
vt 0.666805 0.335108
vt 0.644403 0.329025
vt 0.682512 0.306753
vt 0.392313 0.684965
vt 0.390528 0.711510
vt 0.723450 0.318719
vt 0.711451 0.348211
vt 0.626080 0.315098
vt 0.655998 0.294641
vt 0.356713 0.688013
vt 0.386338 0.666359
vt 0.626516 0.298680
vt 0.648394 0.279300
vt 0.639599 0.228308
vt 0.644770 0.214567
vt 0.632030 0.261954
vt 0.648361 0.265429
vt 0.916220 0.426869
vt 0.874215 0.763523
vt 0.886502 0.728407
vt 0.908369 0.763523
vt 0.977475 0.347535
vt 0.966476 0.333425
vt 0.977475 0.307248
vt 0.764789 0.590268
vt 0.796620 0.596748
vt 0.778540 0.623581
vt 0.948953 0.321329
vt 0.954050 0.288195
vt 0.812015 0.622810
vt 0.797075 0.638808
vt 0.716853 0.609655
vt 0.797989 0.557812
vt 0.788816 0.588032
vt 0.098544 0.932092
vt 0.086001 0.925238
vt 0.097069 0.891429
vt 0.139511 0.900991
vt 0.942250 0.182466
vt 0.903570 0.133062
vt 0.942250 0.124309
vt 0.795242 0.067297
vt 0.139511 0.973517
vt 0.981474 0.287509
vt 0.794598 0.124135
vt 0.757882 0.720486
vt 0.764789 0.734563
vt 0.720728 0.766004
vt 0.809180 0.160729
vt 0.679970 0.769800
vt 0.844198 0.176942
vt 0.650662 0.748075
vt 0.783429 0.755105
vt 0.764789 0.767881
vt 0.767659 0.736868
vt 0.343259 0.959557
vt 0.343259 0.988927
vt 0.326909 0.982822
vt 0.925803 0.730305
vt 0.915947 0.712181
vt 0.940736 0.703987
vt 0.819388 0.705861
vt 0.788785 0.700837
vt 0.944499 0.661622
vt 0.918387 0.645252
vt 0.842436 0.682823
vt 0.800133 0.680113
vt 0.947991 0.636643
vt 0.915947 0.607940
vt 0.802346 0.661832
vt 0.842473 0.656720
vt 0.955235 0.622641
vt 0.928517 0.590268
vt 0.954929 0.743900
vt 0.945263 0.764181
vt 0.945263 0.730305
vt 0.574272 0.958681
vt 0.542888 0.977330
vt 0.542888 0.932488
vt 0.952569 0.553913
vt 0.932847 0.542714
vt 0.958898 0.524384
vt 0.933957 0.522213
vt 0.916220 0.408515
vt 0.923204 0.437868
vt 0.947889 0.476035
vt 0.916220 0.468105
vt 0.919879 0.360429
vt 0.958898 0.456339
vt 0.932175 0.437869
vt 0.623520 0.617598
vt 0.648358 0.590268
vt 0.656180 0.623681
vt 0.672238 0.605143
vt 0.844198 0.193465
vt 0.844198 0.230820
vt 0.633231 0.671794
vt 0.658965 0.660999
vt 0.848882 0.297146
vt 0.877874 0.297362
vt 0.629663 0.730987
vt 0.654778 0.728437
vt 0.859802 0.316538
vt 0.881309 0.332597
vt 0.623520 0.767377
vt 0.837492 0.208462
vt 0.770306 0.182361
vt 0.312006 0.379503
vt 0.370780 0.364746
vt 0.764992 0.122054
vt 0.411543 0.350479
vt 0.755401 0.071787
vt 0.663357 0.940314
vt 0.672547 0.899923
vt 0.702184 0.937386
vt 0.702184 0.897045
vt 0.762295 0.016606
vt 0.821125 0.000000
vt 0.671288 0.986412
vt 0.156908 0.904159
vt 0.477538 0.691900
vt 0.442414 0.698161
vt 0.424277 0.711030
vt 0.466259 0.672266
vt 0.425157 0.666359
vt 0.425157 0.667336
vt 0.606907 0.348211
vt 0.598837 0.335350
vt 0.357014 0.884888
vt 0.625003 0.194608
vt 0.620896 0.223628
vt 0.616265 0.759949
vt 0.612769 0.758966
vt 0.618299 0.740636
vt 0.622640 0.740291
vt 0.308870 0.709753
vt 0.308963 0.728693
vt 0.305164 0.729400
vt 0.305164 0.709022
vt 0.612769 0.721526
vt 0.618150 0.718498
vt 0.972193 0.902468
vt 0.987157 0.914124
vt 0.984310 0.916349
vt 0.966268 0.904208
vt 0.991484 0.673241
vt 0.985648 0.670978
vt 0.987966 0.653813
vt 0.993544 0.653544
vt 0.966922 0.883413
vt 0.961387 0.882616
vt 0.985648 0.635131
vt 0.990969 0.632328
vt 0.975207 0.866642
vt 0.970064 0.863308
vt 0.993236 0.184243
vt 0.998038 0.188303
vt 0.981474 0.201027
vt 0.987112 0.202725
vt 0.969932 0.805095
vt 0.969538 0.785149
vt 0.973732 0.804479
vt 0.987157 0.857224
vt 0.981645 0.223251
vt 0.988120 0.222586
vt 0.992268 0.930930
vt 0.985043 0.919241
vt 0.998345 0.928600
vt 0.989591 0.916349
vt 0.994329 0.240273
vt 0.998038 0.238415
vt 0.993281 0.951896
vt 0.997714 0.952195
vt 0.308465 0.746046
vt 0.305164 0.747265
vt 0.305164 0.729400
vt 0.548933 0.884719
vt 0.545692 0.904186
vt 0.542888 0.905202
vt 0.985043 0.968799
vt 0.988616 0.970067
vt 0.569439 0.920675
vt 0.574071 0.885640
vt 0.035245 0.840771
vt 0.034716 0.819594
vt 0.060923 0.848021
vt 0.061823 0.810622
vt 0.596204 0.932488
vt 0.603584 0.887130
vt 0.086001 0.853497
vt 0.085863 0.804680
vt 0.589660 0.841982
vt 0.563407 0.850783
vt 0.035234 0.875521
vt 0.052091 0.888812
vt 0.542888 0.865398
vt 0.020243 0.855651
vt 0.439870 0.903990
vt 0.426051 0.883288
vt 0.460851 0.877617
vt 0.436834 0.869738
vt 0.001459 0.856561
vt 0.000000 0.876595
vt 0.455932 0.918233
vt 0.483784 0.884416
vt 0.949493 0.808803
vt 0.957671 0.841811
vt 0.923860 0.814521
vt 0.934669 0.857224
vt 0.483784 0.835500
vt 0.462121 0.840217
vt 0.947950 0.773159
vt 0.923860 0.767881
vt 0.436635 0.848508
vt 0.439721 0.813517
vt 0.425157 0.834315
vt 0.007803 0.936156
vt -0.000000 0.920966
vt 0.032238 0.930301
vt 0.017665 0.900807
vt 0.978250 -0.000000
vt 0.997793 0.008346
vt 0.978250 0.045634
vt 0.999224 0.044529
vt 0.057429 0.925963
vt 0.037600 0.888812
vt 0.179938 0.785248
vt 0.200634 0.795136
vt 0.182697 0.823220
vt 0.156908 0.822533
vt 0.032597 0.967659
vt 0.057429 0.974655
vt 0.218897 0.813879
vt 0.209154 0.828902
vt 0.008345 0.955657
vt 0.208932 0.850456
vt 0.182918 0.861258
vt -0.000000 0.969658
vt 0.021543 0.806081
vt 0.000000 0.786317
vt 0.036129 0.785248
vt 0.156908 0.872193
vt 0.286811 0.915892
vt 0.285485 0.882801
vt 0.309884 0.876293
vt 0.311240 0.919009
vt 0.201630 0.886818
vt 0.181265 0.904159
vt 0.285485 0.952310
vt 0.308647 0.964755
vt 0.218897 0.863538
s 1
usemtl Material_ray.png.001
f 61/1/1 65/2/2 49/3/3
f 50/4/4 66/5/5 62/6/6
f 63/7/7 65/2/2 61/1/1
f 62/6/6 66/5/5 64/8/8
f 61/1/1 59/9/9 63/7/7
f 64/8/8 60/10/10 62/6/6
f 61/1/1 57/11/11 59/9/9
f 60/12/10 58/13/12 62/14/6
f 61/1/1 55/15/13 57/11/11
f 58/13/12 56/16/14 62/14/6
f 61/1/1 53/17/15 55/15/13
f 56/16/14 54/18/16 62/14/6
f 61/1/1 51/19/17 53/17/15
f 54/18/16 52/20/18 62/14/6
f 61/1/1 49/3/3 51/19/17
f 52/21/18 50/4/4 62/6/6
f 225/22/19 229/23/20 227/24/21
f 228/25/22 230/26/23 226/27/24
f 73/28/25 284/29/26 74/30/27
f 74/30/27 285/31/28 73/28/25
f 342/32/29 348/33/30 384/34/31
f 385/35/32 349/36/33 343/37/34
f 300/38/35 346/39/36 344/40/37
f 345/41/38 347/42/39 301/43/40
f 324/44/41 380/45/42 352/46/43
f 353/47/44 381/48/45 325/49/46
f 442/50/47 444/51/48 446/52/49
f 447/53/50 445/54/51 443/55/52
f 464/56/53 492/57/54 466/58/55
f 467/59/56 493/60/57 465/61/58
f 496/62/59 498/63/60 500/64/61
f 501/65/62 499/66/63 497/67/64
f 505/68/65 323/69/66 321/70/67
f 505/68/65 321/70/67 391/71/68
f 320/72/69 322/73/70 504/74/71
f 320/75/69 504/76/71 390/77/72
f 505/78/65 507/79/73 315/80/74
f 505/78/65 315/80/74 323/81/66
f 314/82/75 506/83/76 504/84/71
f 314/85/75 504/74/71 322/73/70
f 389/86/77 383/87/78 507/88/73
f 383/87/78 315/89/74 507/88/73
f 314/90/75 382/91/79 506/92/76
f 382/91/79 388/93/80 506/92/76
f 501/65/62 497/67/64 495/94/81
f 501/95/62 495/96/81 503/97/82
f 494/98/83 496/99/59 500/100/61
f 494/98/83 500/100/61 502/101/84
f 505/102/65 503/97/82 507/88/73
f 503/97/82 495/96/81 507/88/73
f 494/98/83 502/101/84 506/103/76
f 502/101/84 504/104/71 506/103/76
f 495/96/81 401/105/85 507/88/73
f 401/105/85 389/86/77 507/88/73
f 388/93/80 400/106/86 506/92/76
f 400/106/86 494/107/83 506/92/76
f 497/108/64 399/109/87 495/96/81
f 399/109/87 401/105/85 495/96/81
f 400/110/86 398/111/88 494/112/83
f 398/111/88 496/62/59 494/112/83
f 499/113/63 397/114/89 497/115/64
f 397/114/89 399/116/87 497/115/64
f 398/111/88 396/117/90 496/62/59
f 396/117/90 498/63/60 496/62/59
f 501/118/62 395/119/91 499/120/63
f 395/119/91 397/121/89 499/120/63
f 396/122/90 394/123/92 498/124/60
f 394/123/92 500/125/61 498/124/60
f 503/126/82 393/127/93 395/128/91
f 503/129/82 395/119/91 501/118/62
f 394/123/92 392/130/94 502/131/84
f 394/123/92 502/131/84 500/125/61
f 505/132/65 391/133/68 393/134/93
f 505/132/65 393/134/93 503/129/82
f 392/130/94 390/135/72 504/136/71
f 392/130/94 504/136/71 502/131/84
f 491/137/95 493/60/57 467/59/56
f 491/137/95 467/59/56 469/138/96
f 466/58/55 492/57/54 490/139/97
f 466/58/55 490/139/97 468/140/98
f 489/141/99 491/142/95 471/143/100
f 491/142/95 469/144/96 471/143/100
f 468/140/98 490/139/97 470/145/101
f 490/139/97 488/146/102 470/145/101
f 483/147/103 489/141/99 473/148/104
f 489/141/99 471/143/100 473/148/104
f 470/145/101 488/146/102 472/149/105
f 488/146/102 482/150/106 472/149/105
f 481/151/107 483/147/103 473/148/104
f 481/152/107 473/153/104 475/154/108
f 472/149/105 482/150/106 480/155/109
f 472/149/105 480/155/109 474/156/110
f 481/157/107 475/158/108 457/159/111
f 475/158/108 455/160/112 457/159/111
f 454/161/113 474/162/110 456/163/114
f 474/162/110 480/164/109 456/163/114
f 463/165/115 479/166/116 459/167/117
f 463/165/115 459/167/117 461/168/118
f 458/169/119 478/170/120 462/171/121
f 458/169/119 462/171/121 460/172/122
f 479/166/116 463/165/115 485/173/123
f 463/174/115 453/175/124 485/176/123
f 452/177/125 462/171/121 484/178/126
f 462/171/121 478/170/120 484/178/126
f 487/179/127 485/176/123 477/180/128
f 485/176/123 453/175/124 477/180/128
f 452/177/125 484/178/126 476/181/129
f 484/178/126 486/182/130 476/181/129
f 487/183/127 477/184/128 465/185/58
f 487/186/127 465/187/58 493/188/57
f 464/56/53 476/181/129 486/182/130
f 464/56/53 486/182/130 492/57/54
f 491/189/95 489/190/99 493/188/57
f 489/190/99 487/186/127 493/188/57
f 486/182/130 488/146/102 492/57/54
f 488/146/102 490/139/97 492/57/54
f 489/141/99 483/147/103 485/191/123
f 489/190/99 485/192/123 487/186/127
f 484/178/126 482/150/106 488/146/102
f 484/178/126 488/146/102 486/182/130
f 483/147/103 481/151/107 485/191/123
f 481/157/107 479/166/116 485/173/123
f 478/170/120 480/155/109 484/178/126
f 480/155/109 482/150/106 484/178/126
f 481/157/107 457/159/111 479/166/116
f 457/159/111 459/167/117 479/166/116
f 458/169/119 456/193/114 478/170/120
f 456/193/114 480/155/109 478/170/120
f 473/194/104 421/195/131 475/196/108
f 421/197/131 419/198/132 475/199/108
f 418/200/133 420/201/134 474/202/110
f 420/201/134 472/203/105 474/202/110
f 471/204/100 423/205/135 473/194/104
f 423/205/135 421/195/131 473/194/104
f 420/201/134 422/206/136 472/203/105
f 422/206/136 470/207/101 472/203/105
f 469/208/96 425/209/137 471/204/100
f 425/209/137 423/205/135 471/204/100
f 422/210/136 424/211/138 470/212/101
f 424/211/138 468/213/98 470/212/101
f 467/214/56 427/215/139 425/216/137
f 467/214/56 425/216/137 469/217/96
f 424/211/138 426/218/140 466/219/55
f 424/211/138 466/219/55 468/213/98
f 465/220/58 429/221/141 427/222/139
f 465/220/58 427/222/139 467/223/56
f 426/224/140 428/225/142 464/226/53
f 426/227/140 464/228/53 466/229/55
f 477/180/128 417/230/143 429/221/141
f 477/180/128 429/221/141 465/220/58
f 428/225/142 416/231/144 476/232/129
f 428/225/142 476/232/129 464/226/53
f 475/199/108 419/198/132 441/233/145
f 475/234/108 441/235/145 455/236/112
f 440/237/146 418/200/133 474/202/110
f 440/238/146 474/239/110 454/240/113
f 455/241/112 441/242/145 439/243/147
f 455/241/112 439/243/147 457/244/111
f 438/245/148 440/246/146 454/247/113
f 438/245/148 454/247/113 456/248/114
f 457/249/111 439/250/147 459/251/117
f 439/250/147 437/252/149 459/251/117
f 436/253/150 438/254/148 458/169/119
f 438/254/148 456/193/114 458/169/119
f 459/251/117 437/252/149 461/255/118
f 437/252/149 435/256/151 461/255/118
f 434/257/152 436/258/150 460/259/122
f 436/258/150 458/260/119 460/259/122
f 461/261/118 435/262/151 433/263/153
f 461/261/118 433/263/153 463/174/115
f 432/264/154 434/265/152 460/266/122
f 432/264/154 460/266/122 462/267/121
f 463/174/115 433/263/153 453/175/124
f 433/263/153 451/268/155 453/175/124
f 450/269/156 432/264/154 452/270/125
f 432/264/154 462/267/121 452/270/125
f 453/175/124 451/268/155 417/230/143
f 453/175/124 417/230/143 477/180/128
f 416/231/144 450/269/156 452/270/125
f 416/231/144 452/270/125 476/232/129
f 447/271/50 443/272/52 449/273/157
f 443/272/52 313/274/158 449/273/157
f 312/275/159 442/50/47 448/276/160
f 442/50/47 446/52/49 448/276/160
f 431/277/161 449/278/157 383/279/78
f 449/273/157 313/274/158 383/280/78
f 312/275/159 448/276/160 382/281/79
f 448/282/160 430/283/162 382/284/79
f 451/268/155 431/277/161 417/230/143
f 431/277/161 415/285/163 417/230/143
f 414/286/164 430/287/162 416/231/144
f 430/283/162 450/288/156 416/289/144
f 433/263/153 449/278/157 451/268/155
f 449/278/157 431/277/161 451/268/155
f 430/283/162 448/282/160 450/288/156
f 448/276/160 432/264/154 450/269/156
f 447/290/50 449/278/157 435/262/151
f 449/278/157 433/263/153 435/262/151
f 432/264/154 448/276/160 434/265/152
f 448/276/160 446/52/49 434/265/152
f 439/291/147 447/292/50 435/293/151
f 439/294/147 435/295/151 437/296/149
f 434/297/152 446/298/49 438/254/148
f 434/297/152 438/254/148 436/253/150
f 445/54/51 447/53/50 441/299/145
f 447/300/50 439/243/147 441/242/145
f 438/254/148 446/298/49 440/301/146
f 446/298/49 444/302/48 440/301/146
f 441/303/145 419/304/132 413/305/165
f 441/299/145 413/306/165 445/54/51
f 412/307/166 418/200/133 440/237/146
f 412/308/166 440/301/146 444/302/48
f 415/285/163 431/277/161 383/279/78
f 415/309/163 383/310/78 389/311/77
f 382/284/79 430/283/162 414/312/164
f 382/284/79 414/312/164 388/313/80
f 443/272/52 319/314/167 311/315/168
f 443/272/52 311/315/168 313/274/158
f 310/316/169 318/317/170 442/50/47
f 310/316/169 442/50/47 312/275/159
f 413/318/165 391/319/68 445/320/51
f 391/319/68 321/321/67 445/320/51
f 320/322/69 390/323/72 444/302/48
f 390/323/72 412/308/166 444/302/48
f 445/324/51 321/325/67 443/326/52
f 321/327/67 319/314/167 443/272/52
f 318/317/170 320/328/69 442/50/47
f 320/328/69 444/51/48 442/50/47
f 417/230/143 415/285/163 403/329/171
f 417/230/143 403/329/171 429/221/141
f 402/330/172 414/286/164 416/231/144
f 402/330/172 416/231/144 428/225/142
f 427/222/139 429/221/141 405/331/173
f 429/221/141 403/329/171 405/331/173
f 402/330/172 428/225/142 404/332/174
f 428/333/142 426/334/140 404/335/174
f 425/336/137 427/337/139 407/338/175
f 427/337/139 405/339/173 407/338/175
f 404/340/174 426/341/140 406/342/176
f 426/341/140 424/343/138 406/342/176
f 423/344/135 425/336/137 409/345/177
f 425/336/137 407/338/175 409/345/177
f 406/346/176 424/347/138 408/348/178
f 424/347/138 422/206/136 408/348/178
f 421/349/131 423/344/135 409/345/177
f 421/349/131 409/345/177 411/350/179
f 408/348/178 422/206/136 420/201/134
f 408/348/178 420/201/134 410/351/180
f 419/198/132 421/197/131 411/352/179
f 419/198/132 411/352/179 413/353/165
f 410/354/180 420/355/134 418/356/133
f 410/354/180 418/356/133 412/308/166
f 413/357/165 411/358/179 393/134/93
f 413/357/165 393/134/93 391/133/68
f 392/359/94 410/354/180 412/308/166
f 392/359/94 412/308/166 390/323/72
f 411/358/179 409/360/177 393/134/93
f 409/360/177 395/119/91 393/134/93
f 394/361/92 408/362/178 392/359/94
f 408/362/178 410/354/180 392/359/94
f 409/360/177 407/363/175 395/119/91
f 407/363/175 397/121/89 395/119/91
f 396/364/90 406/365/176 394/361/92
f 406/365/176 408/362/178 394/361/92
f 407/338/175 405/339/173 397/366/89
f 405/367/173 399/116/87 397/114/89
f 398/368/88 404/369/174 396/364/90
f 404/369/174 406/365/176 396/364/90
f 405/367/173 403/370/171 401/371/85
f 405/367/173 401/371/85 399/116/87
f 400/372/86 402/373/172 404/369/174
f 400/372/86 404/369/174 398/368/88
f 415/374/163 389/375/77 403/370/171
f 389/375/77 401/371/85 403/370/171
f 400/372/86 388/313/80 402/373/172
f 388/313/80 414/312/164 402/373/172
f 381/48/45 353/47/44 387/376/181
f 353/47/44 351/377/182 387/376/181
f 350/378/183 352/46/43 386/379/184
f 352/46/43 380/45/42 386/379/184
f 381/48/45 387/376/181 323/81/66
f 387/376/181 321/380/67 323/81/66
f 320/328/69 386/379/184 322/381/70
f 386/379/184 380/45/42 322/381/70
f 381/48/45 379/382/185 325/49/46
f 379/382/185 317/383/186 325/49/46
f 316/384/187 378/385/188 324/44/41
f 378/385/188 380/45/42 324/44/41
f 381/48/45 323/81/66 379/382/185
f 323/81/66 315/80/74 379/382/185
f 314/386/75 322/381/70 378/385/188
f 322/381/70 380/45/42 378/385/188
f 343/37/34 345/41/38 301/43/40
f 343/37/34 301/43/40 385/35/32
f 300/38/35 344/40/37 342/387/29
f 300/388/35 342/32/29 384/34/31
f 385/35/32 301/43/40 299/389/189
f 385/35/32 299/389/189 319/390/167
f 298/391/190 300/388/35 384/34/31
f 298/391/190 384/34/31 318/317/170
f 387/392/181 385/35/32 321/393/67
f 385/35/32 319/390/167 321/393/67
f 318/317/170 384/34/31 320/328/69
f 384/34/31 386/379/184 320/328/69
f 387/392/181 351/394/182 385/35/32
f 351/394/182 349/36/33 385/35/32
f 348/33/30 350/378/183 384/34/31
f 350/378/183 386/379/184 384/34/31
f 371/395/191 377/396/192 383/397/78
f 377/398/192 315/80/74 383/399/78
f 314/386/75 376/400/193 382/281/79
f 376/400/193 370/401/194 382/281/79
f 371/395/191 383/397/78 313/402/158
f 371/395/191 313/402/158 369/403/195
f 312/275/159 382/281/79 370/401/194
f 312/275/159 370/401/194 368/404/196
f 369/403/195 313/402/158 311/405/168
f 369/403/195 311/405/168 363/406/197
f 310/316/169 312/275/159 368/404/196
f 310/407/169 368/408/196 362/409/198
f 311/405/168 297/410/199 363/406/197
f 297/411/199 295/412/200 363/413/197
f 294/414/201 296/415/202 362/416/198
f 296/417/202 310/407/169 362/409/198
f 361/418/203 291/419/204 285/420/28
f 361/421/203 285/422/28 74/423/27
f 284/424/26 290/425/205 360/426/206
f 284/29/26 360/427/206 74/30/27
f 289/428/207 287/429/208 291/419/204
f 287/429/208 285/420/28 291/419/204
f 284/430/26 286/431/209 290/432/205
f 286/431/209 288/433/210 290/432/205
f 359/434/211 361/435/203 302/436/212
f 361/421/203 74/423/27 302/437/212
f 74/30/27 360/427/206 302/438/212
f 360/427/206 358/439/213 302/438/212
f 365/440/214 293/441/215 361/442/203
f 293/441/215 291/443/204 361/442/203
f 290/444/205 292/445/216 360/446/206
f 292/445/216 364/447/217 360/446/206
f 365/440/214 361/442/203 359/448/211
f 365/440/214 359/448/211 367/449/218
f 358/439/213 360/427/206 364/450/217
f 358/439/213 364/450/217 366/451/219
f 367/449/218 359/448/211 357/452/220
f 367/449/218 357/452/220 373/453/221
f 356/454/222 358/455/213 366/456/219
f 356/454/222 366/456/219 372/457/223
f 373/453/221 357/452/220 355/458/224
f 373/453/221 355/458/224 375/459/225
f 354/460/226 356/454/222 372/457/223
f 354/460/226 372/457/223 374/461/227
f 375/462/225 355/463/224 317/464/186
f 375/465/225 317/383/186 379/382/185
f 316/466/187 354/460/226 374/461/227
f 316/466/187 374/461/227 378/467/188
f 375/465/225 379/382/185 377/398/192
f 379/382/185 315/80/74 377/398/192
f 314/468/75 378/467/188 376/469/193
f 378/467/188 374/461/227 376/469/193
f 377/396/192 371/395/191 373/453/221
f 377/396/192 373/453/221 375/459/225
f 372/457/223 370/470/194 376/469/193
f 372/457/223 376/469/193 374/461/227
f 371/395/191 369/403/195 367/449/218
f 371/395/191 367/449/218 373/453/221
f 366/456/219 368/471/196 370/470/194
f 366/456/219 370/470/194 372/457/223
f 369/403/195 363/406/197 365/440/214
f 369/403/195 365/440/214 367/449/218
f 364/472/217 362/473/198 368/474/196
f 364/450/217 368/475/196 366/451/219
f 363/406/197 295/476/200 293/441/215
f 363/406/197 293/441/215 365/440/214
f 292/445/216 294/414/201 362/416/198
f 292/445/216 362/416/198 364/447/217
f 317/464/186 355/463/224 75/477/228
f 317/464/186 75/477/228 76/478/229
f 75/477/228 354/460/226 316/466/187
f 75/477/228 316/466/187 76/478/229
f 355/463/224 357/479/220 303/480/230
f 355/463/224 303/480/230 75/477/228
f 303/480/230 356/454/222 354/460/226
f 303/480/230 354/460/226 75/477/228
f 357/452/220 359/448/211 303/481/230
f 359/448/211 302/482/212 303/481/230
f 302/482/212 358/483/213 303/481/230
f 358/483/213 356/484/222 303/481/230
f 325/49/46 317/383/186 77/485/231
f 317/383/186 76/486/229 77/485/231
f 76/478/229 316/466/187 77/487/231
f 316/488/187 324/489/41 77/485/231
f 319/390/167 299/389/189 297/490/199
f 319/390/167 297/490/199 311/491/168
f 296/492/202 298/391/190 318/317/170
f 296/492/202 318/317/170 310/316/169
f 349/36/33 329/493/232 343/37/34
f 329/494/232 327/495/233 343/496/34
f 326/497/234 328/498/235 342/499/29
f 328/500/235 348/33/30 342/32/29
f 329/501/232 349/502/33 305/503/236
f 329/501/232 305/503/236 309/504/237
f 305/505/236 348/33/30 328/500/235
f 305/505/236 328/500/235 309/506/237
f 349/502/33 351/377/182 78/507/238
f 349/502/33 78/507/238 305/503/236
f 78/508/238 350/378/183 348/33/30
f 78/508/238 348/33/30 305/505/236
f 351/377/182 353/47/44 78/507/238
f 353/47/44 304/509/239 78/507/238
f 304/510/239 352/46/43 78/508/238
f 352/46/43 350/378/183 78/508/238
f 353/47/44 325/49/46 304/509/239
f 325/49/46 77/485/231 304/509/239
f 77/485/231 324/489/41 304/509/239
f 324/489/41 352/511/43 304/509/239
f 301/512/40 347/513/39 93/514/240
f 347/513/39 80/515/241 93/514/240
f 79/516/242 346/517/36 92/518/243
f 346/519/36 300/520/35 92/521/243
f 345/522/38 216/523/244 347/524/39
f 216/523/244 80/525/241 347/524/39
f 79/526/242 215/527/245 346/528/36
f 215/527/245 344/529/37 346/528/36
f 343/496/34 327/495/233 210/530/246
f 327/495/233 82/531/247 210/530/246
f 81/532/248 326/497/234 209/533/249
f 326/497/234 342/499/29 209/533/249
f 345/522/38 343/496/34 216/523/244
f 343/496/34 210/530/246 216/523/244
f 209/533/249 342/499/29 215/527/245
f 342/499/29 344/529/37 215/527/245
f 333/534/250 84/535/251 82/536/247
f 333/534/250 82/536/247 327/537/233
f 81/532/248 83/538/252 332/539/253
f 81/532/248 332/539/253 326/497/234
f 339/540/254 333/534/250 329/501/232
f 333/534/250 327/537/233 329/501/232
f 326/497/234 332/539/253 328/498/235
f 332/541/253 338/542/255 328/543/235
f 341/544/256 335/545/257 337/546/258
f 335/545/257 331/547/259 337/546/258
f 330/548/260 334/549/261 336/550/262
f 334/549/261 340/551/263 336/550/262
f 339/540/254 337/546/258 331/547/259
f 339/540/254 331/547/259 333/534/250
f 330/548/260 336/550/262 338/552/255
f 330/553/260 338/554/255 332/539/253
f 331/555/259 86/556/264 84/557/251
f 331/558/259 84/559/251 333/560/250
f 83/561/252 85/562/265 330/563/260
f 83/538/252 330/553/260 332/539/253
f 335/545/257 88/564/266 86/565/264
f 335/566/257 86/567/264 331/568/259
f 85/562/265 87/569/267 334/570/261
f 85/562/265 334/570/261 330/563/260
f 341/544/256 90/571/268 88/564/266
f 341/544/256 88/564/266 335/545/257
f 87/569/267 89/572/269 340/573/263
f 87/569/267 340/573/263 334/570/261
f 306/574/270 91/575/271 90/576/268
f 306/577/270 90/571/268 341/544/256
f 89/572/269 91/578/271 306/579/270
f 89/572/269 306/579/270 340/573/263
f 337/546/258 307/580/272 341/544/256
f 307/580/272 306/577/270 341/544/256
f 306/577/270 307/580/272 340/551/263
f 307/580/272 336/550/262 340/551/263
f 339/540/254 308/581/273 337/546/258
f 308/581/273 307/580/272 337/546/258
f 307/580/272 308/581/273 336/550/262
f 308/582/273 338/583/255 336/584/262
f 329/501/232 309/504/237 339/540/254
f 309/504/237 308/581/273 339/540/254
f 308/581/273 309/504/237 338/552/255
f 309/504/237 328/585/235 338/552/255
f 301/512/40 93/514/240 95/586/274
f 301/512/40 95/586/274 299/587/189
f 94/588/275 92/589/243 300/388/35
f 94/588/275 300/388/35 298/391/190
f 299/587/189 95/586/274 97/590/276
f 299/587/189 97/590/276 297/411/199
f 96/591/277 94/588/275 298/391/190
f 96/591/277 298/391/190 296/492/202
f 297/411/199 97/590/276 295/412/200
f 97/590/276 99/592/278 295/412/200
f 98/593/279 96/594/277 294/414/201
f 96/594/277 296/415/202 294/414/201
f 295/595/200 99/596/278 101/597/280
f 295/595/200 101/597/280 293/598/215
f 100/599/281 98/593/279 294/414/201
f 100/599/281 294/414/201 292/445/216
f 293/441/215 101/600/280 291/443/204
f 101/601/280 103/602/282 291/603/204
f 102/604/283 100/599/281 290/444/205
f 100/599/281 292/445/216 290/444/205
f 291/605/204 103/606/282 289/607/207
f 103/606/282 105/608/284 289/607/207
f 104/609/285 102/604/283 288/610/210
f 102/604/283 290/444/205 288/610/210
f 289/428/207 105/611/284 287/429/208
f 105/611/284 107/612/286 287/429/208
f 106/613/287 104/609/285 286/614/209
f 104/609/285 288/610/210 286/614/209
f 287/429/208 107/612/286 109/615/288
f 287/429/208 109/615/288 285/420/28
f 108/616/289 106/617/287 286/618/209
f 108/616/289 286/618/209 284/619/26
f 285/420/28 109/615/288 67/620/290
f 285/420/28 67/620/290 73/621/25
f 67/622/290 108/616/289 284/619/26
f 67/622/290 284/619/26 73/623/25
f 281/624/291 235/625/292 233/626/293
f 281/624/291 233/626/293 283/627/294
f 232/628/295 234/629/296 280/630/297
f 232/628/295 280/630/297 282/631/298
f 283/627/294 233/626/293 255/632/299
f 283/627/294 255/632/299 261/633/300
f 254/634/301 232/628/295 282/631/298
f 254/634/301 282/631/298 260/635/302
f 261/636/300 255/637/299 257/638/303
f 261/636/300 257/638/303 259/639/304
f 256/640/305 254/641/301 260/642/302
f 256/643/305 260/635/302 258/644/306
f 263/645/307 253/646/308 235/625/292
f 263/645/307 235/625/292 281/624/291
f 234/629/296 252/647/309 262/648/310
f 234/629/296 262/648/310 280/630/297
f 265/649/311 251/650/312 263/645/307
f 251/650/312 253/646/308 263/645/307
f 252/647/309 250/651/313 262/648/310
f 250/651/313 264/652/314 262/648/310
f 267/653/315 249/654/316 265/655/311
f 249/654/316 251/656/312 265/655/311
f 250/651/313 248/657/317 264/652/314
f 248/658/317 266/659/318 264/660/314
f 269/661/319 247/662/320 249/654/316
f 269/661/319 249/654/316 267/653/315
f 248/663/317 246/664/321 268/665/322
f 248/658/317 268/666/322 266/659/318
f 271/667/323 245/668/324 269/661/319
f 245/668/324 247/662/320 269/661/319
f 246/669/321 244/670/325 268/671/322
f 244/670/325 270/672/326 268/671/322
f 273/673/327 243/674/328 245/668/324
f 273/673/327 245/668/324 271/667/323
f 244/670/325 242/675/329 272/676/330
f 244/670/325 272/676/330 270/672/326
f 275/677/331 241/678/332 273/679/327
f 241/678/332 243/680/328 273/679/327
f 242/675/329 240/681/333 272/676/330
f 240/681/333 274/682/334 272/676/330
f 279/683/335 237/684/336 275/685/331
f 237/686/336 241/687/332 275/688/331
f 240/681/333 236/689/337 274/682/334
f 236/689/337 278/690/338 274/682/334
f 277/691/339 239/692/340 237/684/336
f 277/691/339 237/684/336 279/683/335
f 236/693/337 238/694/341 276/695/342
f 236/693/337 276/695/342 278/696/338
f 259/639/304 257/638/303 239/692/340
f 259/639/304 239/692/340 277/691/339
f 238/694/341 256/643/305 258/644/306
f 238/694/341 258/644/306 276/695/342
f 257/697/303 111/698/343 129/699/344
f 257/697/303 129/699/344 239/700/340
f 128/701/345 110/702/346 256/643/305
f 128/701/345 256/643/305 238/694/341
f 239/700/340 129/699/344 180/703/347
f 239/700/340 180/703/347 237/704/336
f 179/705/348 128/701/345 238/694/341
f 179/705/348 238/694/341 236/693/337
f 237/706/336 180/707/347 127/708/349
f 237/706/336 127/708/349 241/709/332
f 126/710/350 179/705/348 236/693/337
f 126/710/350 236/693/337 240/711/333
f 241/709/332 127/708/349 243/712/328
f 127/708/349 125/713/351 243/712/328
f 124/714/352 126/710/350 242/715/329
f 126/710/350 240/711/333 242/715/329
f 243/712/328 125/713/351 245/716/324
f 125/713/351 123/717/353 245/716/324
f 122/718/354 124/714/352 244/719/325
f 124/714/352 242/715/329 244/719/325
f 245/720/324 123/721/353 121/722/355
f 245/720/324 121/722/355 247/723/320
f 120/724/356 122/718/354 244/719/325
f 120/724/356 244/719/325 246/725/321
f 247/723/320 121/722/355 119/726/357
f 247/723/320 119/726/357 249/727/316
f 118/728/358 120/724/356 246/725/321
f 118/729/358 246/730/321 248/731/317
f 249/727/316 119/726/357 117/732/359
f 249/727/316 117/732/359 251/733/312
f 116/734/360 118/735/358 248/736/317
f 116/734/360 248/736/317 250/737/313
f 251/733/312 117/732/359 115/738/361
f 251/733/312 115/738/361 253/739/308
f 114/740/362 116/734/360 250/737/313
f 114/740/362 250/737/313 252/741/309
f 253/742/308 115/743/361 235/744/292
f 115/745/361 182/746/363 235/747/292
f 181/748/364 114/740/362 234/749/296
f 114/740/362 252/741/309 234/749/296
f 255/750/299 113/751/365 257/697/303
f 113/751/365 111/698/343 257/697/303
f 110/702/346 112/752/366 256/643/305
f 112/752/366 254/634/301 256/643/305
f 233/753/293 184/754/367 113/751/365
f 233/753/293 113/751/365 255/750/299
f 112/755/366 183/756/368 232/757/295
f 112/752/366 232/628/295 254/634/301
f 235/747/292 182/746/363 184/754/367
f 235/747/292 184/754/367 233/753/293
f 183/756/368 181/748/364 234/749/296
f 183/756/368 234/749/296 232/757/295
f 230/26/23 231/758/369 224/759/370
f 230/26/23 224/759/370 226/27/24
f 224/759/370 231/758/369 229/23/20
f 224/759/370 229/23/20 225/22/19
f 224/759/370 72/760/371 226/27/24
f 72/760/371 223/761/372 226/27/24
f 222/762/373 72/763/371 225/764/19
f 72/763/371 224/765/370 225/764/19
f 226/766/24 223/767/372 221/768/374
f 226/766/24 221/768/374 228/769/22
f 220/770/375 222/771/373 225/772/19
f 220/770/375 225/772/19 227/773/21
f 228/774/22 221/775/374 219/776/376
f 228/774/22 219/776/376 230/777/23
f 218/778/377 220/770/375 227/773/21
f 218/778/377 227/773/21 229/779/20
f 230/780/23 219/781/376 231/782/369
f 219/781/376 217/783/378 231/782/369
f 217/783/378 218/778/377 231/782/369
f 218/778/377 229/779/20 231/782/369
f 219/784/376 136/785/379 137/786/380
f 219/784/376 137/786/380 217/787/378
f 137/786/380 135/788/381 218/789/377
f 137/786/380 218/789/377 217/787/378
f 221/790/374 134/791/382 136/785/379
f 221/790/374 136/785/379 219/784/376
f 135/792/381 133/793/383 220/794/375
f 135/792/381 220/794/375 218/795/377
f 223/796/372 132/797/384 134/791/382
f 223/796/372 134/791/382 221/790/374
f 133/793/383 131/798/385 222/799/373
f 133/793/383 222/799/373 220/794/375
f 72/760/371 130/800/386 223/761/372
f 130/800/386 132/801/384 223/761/372
f 131/798/385 130/800/386 222/799/373
f 130/800/386 72/760/371 222/799/373
f 212/802/387 165/803/388 80/525/241
f 212/802/387 80/525/241 216/523/244
f 79/804/242 164/805/389 211/806/390
f 79/807/242 211/808/390 215/809/245
f 212/802/387 216/523/244 214/810/391
f 216/523/244 210/530/246 214/810/391
f 209/811/249 215/809/245 213/812/392
f 215/809/245 211/808/390 213/812/392
f 214/810/391 210/530/246 167/813/393
f 210/530/246 82/531/247 167/813/393
f 81/814/248 209/811/249 166/815/394
f 209/811/249 213/812/392 166/815/394
f 167/816/393 188/817/395 214/818/391
f 188/819/395 145/820/396 214/821/391
f 144/822/397 187/823/398 213/812/392
f 187/823/398 166/815/394 213/812/392
f 214/821/391 145/820/396 212/824/387
f 145/820/396 143/825/399 212/824/387
f 142/826/400 144/822/397 211/808/390
f 144/822/397 213/812/392 211/808/390
f 212/827/387 143/828/399 141/829/401
f 212/830/387 141/831/401 165/832/388
f 140/833/402 142/826/400 211/808/390
f 140/834/402 211/835/390 164/836/389
f 165/837/388 141/838/401 139/839/403
f 165/840/388 139/841/403 177/842/404
f 139/843/403 140/834/402 164/836/389
f 139/844/403 164/845/389 177/846/404
f 207/847/405 208/848/406 199/849/407
f 207/847/405 199/849/407 205/850/408
f 199/851/407 208/852/406 206/853/409
f 199/854/407 206/855/409 204/856/410
f 203/857/411 205/858/408 201/859/412
f 205/858/408 199/860/407 201/859/412
f 199/861/407 204/862/410 200/863/413
f 204/862/410 202/864/414 200/863/413
f 207/847/405 205/850/408 194/865/415
f 207/847/405 194/865/415 192/866/416
f 193/867/417 204/868/410 206/869/409
f 193/870/417 206/871/409 191/872/418
f 205/873/408 203/874/411 194/875/415
f 203/874/411 196/876/419 194/875/415
f 195/877/420 202/864/414 193/878/417
f 202/864/414 204/862/410 193/878/417
f 203/874/411 201/879/412 198/880/421
f 203/874/411 198/880/421 196/876/419
f 197/881/422 200/863/413 202/864/414
f 197/881/422 202/864/414 195/877/420
f 201/859/412 199/860/407 71/882/423
f 201/859/412 71/882/423 198/883/421
f 71/884/423 199/885/407 200/886/413
f 71/884/423 200/886/413 197/887/422
f 207/847/405 192/866/416 208/848/406
f 192/866/416 70/888/424 208/848/406
f 70/888/424 191/872/418 208/848/406
f 191/872/418 206/871/409 208/848/406
f 192/866/416 145/820/396 70/888/424
f 145/820/396 190/889/425 70/888/424
f 190/890/425 144/891/397 70/892/424
f 144/891/397 191/893/418 70/892/424
f 198/883/421 71/882/423 139/894/403
f 71/895/426 138/896/427 139/897/428
f 71/884/423 197/887/422 139/898/403
f 196/899/419 198/900/421 141/901/401
f 198/900/421 139/902/403 141/901/401
f 139/903/403 197/904/422 140/905/402
f 197/904/422 195/906/420 140/905/402
f 194/875/415 196/876/419 143/828/399
f 196/876/419 141/829/401 143/828/399
f 140/905/402 195/906/420 142/907/400
f 195/908/420 193/909/417 142/910/400
f 192/911/416 194/912/415 143/913/399
f 192/866/416 143/825/399 145/820/396
f 142/910/400 193/909/417 191/893/418
f 142/910/400 191/893/418 144/891/397
f 186/914/429 132/915/384 69/916/430
f 132/915/384 130/917/386 69/916/430
f 130/917/386 131/918/385 69/916/430
f 131/918/385 185/919/431 69/916/430
f 189/920/432 188/921/395 69/916/430
f 188/921/395 186/914/429 69/916/430
f 185/919/431 187/823/398 69/916/430
f 187/823/398 189/920/432 69/916/430
f 189/920/432 190/922/425 188/921/395
f 190/922/425 145/923/396 188/921/395
f 144/822/397 190/922/425 187/823/398
f 190/922/425 189/920/432 187/823/398
f 169/924/433 171/925/434 132/801/384
f 169/924/433 132/801/384 186/926/429
f 131/918/385 170/927/435 168/928/436
f 131/918/385 168/928/436 185/919/431
f 186/926/429 188/929/395 167/930/393
f 186/926/429 167/930/393 169/924/433
f 166/815/394 187/823/398 185/919/431
f 166/815/394 185/919/431 168/928/436
f 173/931/437 134/932/382 171/925/434
f 134/932/382 132/801/384 171/925/434
f 131/918/385 133/933/383 170/927/435
f 133/933/383 172/934/438 170/927/435
f 175/935/439 136/936/379 134/932/382
f 175/935/439 134/932/382 173/931/437
f 133/793/383 135/792/381 174/937/440
f 133/793/383 174/937/440 172/938/438
f 176/939/441 137/940/380 136/936/379
f 176/939/441 136/936/379 175/935/439
f 135/792/381 137/940/380 176/939/441
f 135/792/381 176/939/441 174/937/440
f 184/754/367 182/746/363 178/941/442
f 182/746/363 177/842/404 178/941/442
f 177/942/404 181/943/364 178/944/442
f 181/945/364 183/946/368 178/947/442
f 178/948/442 68/949/443 113/950/365
f 178/941/442 113/751/365 184/754/367
f 112/951/366 68/952/443 178/947/442
f 112/951/366 178/947/442 183/946/368
f 68/949/443 163/953/444 113/950/365
f 163/953/444 111/954/343 113/950/365
f 110/702/346 162/955/445 112/752/366
f 162/542/445 68/956/443 112/957/366
f 177/842/404 182/746/363 115/745/361
f 177/842/404 115/745/361 165/840/388
f 114/958/362 181/959/364 177/960/404
f 114/958/362 177/960/404 164/961/389
f 147/962/446 165/963/388 115/964/361
f 147/965/446 115/738/361 117/732/359
f 114/958/362 164/961/389 146/966/447
f 114/740/362 146/967/447 116/734/360
f 149/968/448 147/965/446 119/726/357
f 147/965/446 117/732/359 119/726/357
f 116/969/360 146/970/447 118/728/358
f 146/970/447 148/971/449 118/728/358
f 151/972/450 149/968/448 121/722/355
f 149/968/448 119/726/357 121/722/355
f 118/728/358 148/971/449 120/724/356
f 148/971/449 150/973/451 120/724/356
f 153/974/452 151/972/450 123/721/353
f 151/972/450 121/722/355 123/721/353
f 120/724/356 150/973/451 122/718/354
f 150/973/451 152/975/453 122/718/354
f 155/976/454 153/977/452 125/978/351
f 153/979/452 123/980/353 125/981/351
f 122/718/354 152/975/453 124/714/352
f 152/982/453 154/983/455 124/984/352
f 157/985/456 155/976/454 127/986/349
f 155/976/454 125/978/351 127/986/349
f 124/984/352 154/983/455 126/987/350
f 154/983/455 156/988/457 126/987/350
f 159/989/458 157/985/456 180/990/347
f 157/985/456 127/986/349 180/990/347
f 126/987/350 156/988/457 179/991/348
f 156/988/457 158/992/459 179/991/348
f 159/989/458 180/990/347 129/993/344
f 159/989/458 129/993/344 161/994/460
f 128/995/345 179/991/348 158/992/459
f 128/995/345 158/992/459 160/996/461
f 161/994/460 129/993/344 163/953/444
f 129/993/344 111/954/343 163/953/444
f 110/997/346 128/998/345 162/999/445
f 128/1000/345 160/1001/461 162/1002/445
f 68/1003/443 67/1004/290 163/1005/444
f 67/1004/290 109/1006/288 163/1005/444
f 108/616/289 67/622/290 162/1007/445
f 67/622/290 68/1008/443 162/1007/445
f 163/1005/444 109/1006/288 161/1009/460
f 109/1006/288 107/1010/286 161/1009/460
f 106/617/287 108/616/289 160/1011/461
f 108/616/289 162/1007/445 160/1011/461
f 161/1009/460 107/1010/286 159/1012/458
f 107/1010/286 105/1013/284 159/1012/458
f 104/1014/285 106/1015/287 158/1016/459
f 106/1015/287 160/1017/461 158/1016/459
f 159/1018/458 105/608/284 103/606/282
f 159/1018/458 103/606/282 157/1019/456
f 102/1020/283 104/1014/285 158/1016/459
f 102/1020/283 158/1016/459 156/1021/457
f 157/1019/456 103/606/282 155/1022/454
f 103/606/282 101/1023/280 155/1022/454
f 100/1024/281 102/1020/283 154/1025/455
f 102/1020/283 156/1021/457 154/1025/455
f 155/1022/454 101/1023/280 153/1026/452
f 101/1023/280 99/1027/278 153/1026/452
f 98/1028/279 100/1024/281 152/975/453
f 100/1024/281 154/1025/455 152/975/453
f 153/974/452 99/1029/278 151/972/450
f 99/1029/278 97/1030/276 151/972/450
f 96/591/277 98/1031/279 150/1032/451
f 98/1028/279 152/975/453 150/973/451
f 151/972/450 97/1030/276 95/1033/274
f 151/972/450 95/1033/274 149/968/448
f 94/588/275 96/591/277 150/1032/451
f 94/588/275 150/1032/451 148/1034/449
f 149/968/448 95/1033/274 147/965/446
f 95/1033/274 93/1035/240 147/965/446
f 92/1036/243 94/1037/275 146/1038/447
f 94/1037/275 148/1039/449 146/1038/447
f 147/965/446 93/1035/240 80/1040/241
f 147/965/446 80/1040/241 165/1041/388
f 79/1042/242 92/1036/243 146/1038/447
f 79/804/242 146/1043/447 164/805/389
f 169/1044/433 167/813/393 82/531/247
f 169/1044/433 82/531/247 84/1045/251
f 81/814/248 166/815/394 168/928/436
f 81/814/248 168/928/436 83/1046/252
f 171/1047/434 169/1044/433 84/1045/251
f 171/1047/434 84/1045/251 86/1048/264
f 83/1046/252 168/928/436 170/927/435
f 83/1046/252 170/927/435 85/1049/265
f 173/931/437 171/925/434 86/1050/264
f 173/931/437 86/1050/264 88/1051/266
f 85/1049/265 170/927/435 172/934/438
f 85/562/265 172/1052/438 87/569/267
f 175/935/439 173/931/437 90/576/268
f 173/931/437 88/1051/266 90/576/268
f 87/1053/267 172/938/438 89/1054/269
f 172/938/438 174/937/440 89/1054/269
f 176/939/441 175/935/439 91/575/271
f 175/935/439 90/576/268 91/575/271
f 89/1054/269 174/937/440 91/575/271
f 174/937/440 176/939/441 91/575/271
f 50/1055/4 48/1056/462 2/1057/463
f 50/1055/4 2/1057/463 66/1058/5
f 1/1059/464 47/1060/465 49/1061/3
f 1/1059/464 49/1061/3 65/1062/2
f 66/1058/5 2/1057/463 12/1063/466
f 66/1058/5 12/1063/466 64/1064/8
f 11/1065/467 1/1066/464 65/1067/2
f 11/1065/467 65/1067/2 63/1068/7
f 64/1069/8 12/1070/466 14/1071/468
f 64/1069/8 14/1071/468 60/1072/10
f 13/1073/469 11/1065/467 63/1068/7
f 13/1073/469 63/1068/7 59/1074/9
f 60/1072/10 14/1071/468 24/1075/470
f 60/1072/10 24/1075/470 58/1076/12
f 23/1077/471 13/1073/469 59/1074/9
f 23/1077/471 59/1074/9 57/1078/11
f 58/1079/12 24/1080/470 56/1081/14
f 24/1080/470 26/1082/472 56/1081/14
f 25/1083/473 23/1084/471 55/1085/13
f 23/1077/471 57/1078/11 55/1086/13
f 56/1081/14 26/1082/472 54/1087/16
f 26/1082/472 36/1088/474 54/1087/16
f 35/1089/475 25/1090/473 53/1091/15
f 25/1090/473 55/1092/13 53/1091/15
f 54/1087/16 36/1088/474 52/1093/18
f 36/1088/474 38/1094/476 52/1093/18
f 37/1095/477 35/1089/475 51/1096/17
f 35/1089/475 53/1091/15 51/1096/17
f 52/1097/18 38/1098/476 50/1099/4
f 38/1100/476 48/1101/462 50/1102/4
f 47/1103/465 37/1095/477 49/1104/3
f 37/1095/477 51/1096/17 49/1104/3
f 46/1105/478 48/1101/462 40/1106/479
f 48/1101/462 38/1100/476 40/1106/479
f 37/1107/477 47/1108/465 39/1109/480
f 47/1108/465 45/1110/481 39/1109/480
f 44/1111/482 46/1105/478 42/1112/483
f 46/1105/478 40/1106/479 42/1112/483
f 39/1109/480 45/1110/481 41/1113/484
f 45/1110/481 43/1114/485 41/1113/484
f 42/1112/483 40/1106/479 32/1115/486
f 40/1106/479 34/1116/487 32/1115/486
f 33/1117/488 39/1109/480 31/1118/489
f 39/1109/480 41/1113/484 31/1118/489
f 40/1106/479 38/1100/476 34/1116/487
f 38/1100/476 36/1119/474 34/1116/487
f 35/1120/475 37/1107/477 33/1117/488
f 37/1107/477 39/1109/480 33/1117/488
f 34/1121/487 36/1122/474 28/1123/490
f 36/1122/474 26/1124/472 28/1123/490
f 25/1125/473 35/1120/475 27/1126/491
f 35/1120/475 33/1117/488 27/1126/491
f 32/1127/486 34/1121/487 30/1128/492
f 34/1121/487 28/1123/490 30/1128/492
f 27/1129/491 33/1130/488 29/1131/493
f 33/1130/488 31/1132/489 29/1131/493
f 30/1128/492 28/1123/490 20/1133/494
f 28/1123/490 22/1134/495 20/1133/494
f 21/1135/496 27/1129/491 19/1136/497
f 27/1129/491 29/1131/493 19/1136/497
f 28/1123/490 26/1124/472 24/1137/470
f 28/1123/490 24/1137/470 22/1134/495
f 23/1084/471 25/1083/473 27/1129/491
f 23/1084/471 27/1129/491 21/1135/496
f 22/1134/495 24/1137/470 16/1138/498
f 24/1137/470 14/1139/468 16/1138/498
f 13/1140/469 23/1141/471 15/1142/499
f 23/1141/471 21/1143/496 15/1142/499
f 20/1144/494 22/1145/495 18/1146/500
f 22/1145/495 16/1147/498 18/1146/500
f 15/1142/499 21/1143/496 17/1148/501
f 21/1143/496 19/1149/497 17/1148/501
f 18/1150/500 16/1151/498 10/1152/502
f 18/1150/500 10/1152/502 8/1153/503
f 9/1154/504 15/1142/499 17/1148/501
f 9/1154/504 17/1148/501 7/1155/505
f 16/1151/498 14/1156/468 12/1157/466
f 16/1151/498 12/1157/466 10/1152/502
f 11/1158/467 13/1140/469 15/1142/499
f 11/1158/467 15/1142/499 9/1154/504
f 10/1152/502 12/1157/466 2/1159/463
f 10/1152/502 2/1159/463 4/1160/506
f 1/1161/464 11/1158/467 9/1154/504
f 1/1162/464 9/1163/504 3/1164/507
f 8/1153/503 10/1152/502 4/1160/506
f 8/1153/503 4/1160/506 6/1165/508
f 3/1166/507 9/1167/504 7/1168/505
f 3/1166/507 7/1168/505 5/1169/509
f 6/1165/508 4/1160/506 46/1170/478
f 6/1165/508 46/1170/478 44/1171/482
f 45/1172/481 3/1166/507 5/1169/509
f 45/1172/481 5/1169/509 43/1173/485
f 4/1160/506 2/1159/463 48/1174/462
f 4/1160/506 48/1174/462 46/1170/478
f 47/1108/465 1/1162/464 3/1164/507
f 47/1108/465 3/1164/507 45/1110/481
